<?xml version="1.0" encoding="UTF-8"?> <svg xmlns="http://www.w3.org/2000/svg" width="238" height="42" viewBox="0 0 238 42" fill="none"><g clip-path="url(#clip0_3373_4088)"><path d="M154.149 32.0324C152.208 32.0775 150.279 31.7265 148.479 31.0008C146.678 30.2752 145.045 29.1902 143.678 27.812C142.311 26.4338 141.239 24.7914 140.528 22.9852C139.817 21.1789 139.482 19.2466 139.543 17.3065C139.492 15.3788 139.835 13.4611 140.548 11.6697C141.262 9.87833 142.332 8.25066 143.694 6.88554C145.051 5.49741 146.68 4.40457 148.479 3.67552C150.278 2.94648 152.209 2.59694 154.149 2.64884C156.092 2.60094 158.022 2.98884 159.795 3.78406C161.569 4.57927 163.142 5.76162 164.399 7.24429L161.888 9.75556C160.967 8.59115 159.789 7.65533 158.447 7.02117C157.104 6.387 155.633 6.07164 154.149 6.0997C152.702 6.06437 151.263 6.32496 149.921 6.86548C148.579 7.40601 147.361 8.21507 146.342 9.24306C145.301 10.3041 144.489 11.5668 143.954 12.9534C143.419 14.3401 143.174 15.8215 143.233 17.3065C143.169 18.7971 143.412 20.285 143.947 21.6779C144.482 23.0707 145.297 24.339 146.342 25.404C147.358 26.4353 148.576 27.2465 149.919 27.7873C151.262 28.328 152.702 28.5868 154.149 28.5474C155.791 28.5394 157.411 28.164 158.889 27.4486C160.367 26.7332 161.666 25.6961 162.691 24.4132L165.322 26.9757C163.99 28.5677 162.313 29.8354 160.419 30.6828C158.452 31.5852 156.312 32.0458 154.149 32.0324ZM171.865 3.28092V31.4174H168.243V3.28092H171.865ZM174.974 21.7823C174.934 20.4338 175.162 19.0907 175.642 17.8301C176.123 16.5695 176.848 15.4162 177.776 14.4364C178.693 13.4853 179.799 12.7358 181.023 12.2358C182.247 11.7358 183.561 11.4962 184.882 11.5322C186.199 11.4946 187.508 11.7337 188.727 12.2339C189.945 12.7342 191.045 13.4845 191.955 14.4364C192.892 15.4104 193.624 16.5623 194.108 17.824C194.592 19.0857 194.818 20.4317 194.774 21.7823C194.823 23.1336 194.599 24.4809 194.115 25.7433C193.63 27.0057 192.896 28.1571 191.955 29.1282C191.047 30.0836 189.948 30.8362 188.729 31.3368C187.51 31.8373 186.199 32.0743 184.882 32.0324C183.56 32.0727 182.245 31.8351 181.021 31.3348C179.796 30.8345 178.691 30.0828 177.776 29.1282C176.848 28.1484 176.123 26.9952 175.642 25.7346C175.162 24.474 174.934 23.1309 174.974 21.7823ZM178.596 21.7823C178.512 23.6299 179.163 25.4354 180.406 26.8049C180.981 27.415 181.675 27.9012 182.445 28.2334C183.214 28.5657 184.044 28.7371 184.882 28.7371C185.721 28.7371 186.55 28.5657 187.32 28.2334C188.09 27.9012 188.783 27.415 189.358 26.8049C190.601 25.4354 191.252 23.6299 191.169 21.7823C191.249 19.9455 190.598 18.1519 189.358 16.794C188.789 16.1748 188.097 15.6805 187.326 15.3424C186.556 15.0043 185.724 14.8297 184.882 14.8297C184.041 14.8297 183.209 15.0043 182.438 15.3424C181.668 15.6805 180.976 16.1748 180.406 16.794C179.167 18.1519 178.516 19.9455 178.596 21.7823ZM214.761 31.4174H211.345V28.7353H211.174C210.563 29.738 209.688 30.5535 208.645 31.0928C207.562 31.7071 206.338 32.0307 205.092 32.0324C204.093 32.0971 203.092 31.9511 202.153 31.6038C201.214 31.2566 200.359 30.7158 199.642 30.0166C198.289 28.4154 197.609 26.3516 197.746 24.2594V12.1814H201.351V24.0374C201.275 24.6792 201.347 25.3298 201.561 25.9397C201.775 26.5496 202.125 27.1028 202.584 27.5573C203.043 28.0118 203.6 28.3556 204.213 28.5627C204.825 28.7698 205.476 28.8347 206.117 28.7524C206.809 28.7644 207.494 28.6165 208.119 28.3202C208.745 28.0239 209.293 27.5871 209.722 27.044C210.696 25.8705 211.212 24.3835 211.174 22.8586V12.1814H214.795L214.761 31.4174ZM226.993 32.0324C225.763 32.0322 224.548 31.7664 223.431 31.2534C222.314 30.7404 221.32 29.9922 220.518 29.0599C218.724 27.0646 217.748 24.4658 217.785 21.7823C217.726 19.1128 218.678 16.5196 220.45 14.5219C221.246 13.5811 222.238 12.826 223.356 12.3095C224.475 11.7931 225.693 11.5277 226.925 11.5322C228.272 11.5094 229.605 11.8205 230.803 12.4377C231.9 12.9788 232.833 13.8048 233.502 14.8294H233.656L233.57 12.1814V3.28092H237.175V31.4174H233.758V28.7353H233.604C232.935 29.7599 232.003 30.5859 230.905 31.127C229.697 31.7497 228.352 32.0609 226.993 32.0324ZM227.591 28.7353C228.416 28.7619 229.235 28.6022 229.99 28.268C230.744 27.9337 231.413 27.4336 231.947 26.8049C233.142 25.4131 233.754 23.614 233.656 21.7823C233.738 19.9632 233.128 18.1805 231.947 16.794C231.415 16.1609 230.747 15.6557 229.993 15.3156C229.239 14.9755 228.418 14.8094 227.591 14.8294C226.765 14.8166 225.947 14.986 225.194 15.3256C224.441 15.6652 223.772 16.1665 223.235 16.794C222.054 18.1805 221.444 19.9632 221.526 21.7823C221.431 23.6032 222.044 25.3903 223.235 26.7707C223.772 27.3982 224.441 27.8995 225.194 28.2391C225.947 28.5786 226.765 28.7481 227.591 28.7353Z" fill="#5F6368"></path><path d="M17.0369 32.0334C12.7859 32.0474 8.70061 30.3859 5.66605 27.4089C2.63149 24.4319 0.892089 20.3791 0.824707 16.1286C0.892089 11.8782 2.63149 7.82538 5.66605 4.84838C8.70061 1.87138 12.7859 0.209897 17.0369 0.223912C19.0625 0.19018 21.0745 0.561141 22.9549 1.31505C24.8352 2.06896 26.5462 3.19065 27.9874 4.61437L24.8953 7.67231C22.787 5.64225 19.9635 4.5251 17.0369 4.56312C15.5216 4.55848 14.0205 4.85522 12.621 5.43607C11.2214 6.01693 9.95134 6.8703 8.88464 7.94655C7.81794 9.02279 6.9759 10.3004 6.40753 11.7051C5.83915 13.1098 5.55579 14.6134 5.57392 16.1286C5.55579 17.6438 5.83915 19.1475 6.40753 20.5522C6.9759 21.9569 7.81794 23.2345 8.88464 24.3107C9.95134 25.387 11.2214 26.2403 12.621 26.8212C14.0205 27.402 15.5216 27.6988 17.0369 27.6941C18.5297 27.7554 20.0187 27.5028 21.4076 26.9525C22.7966 26.4022 24.0546 25.5665 25.1003 24.4995C26.4943 22.996 27.3322 21.061 27.4749 19.0157H17.0369V14.6936H31.7287C31.889 15.5899 31.9633 16.4995 31.9508 17.4099C32.0665 21.1589 30.7045 24.8033 28.1583 27.5575C26.7253 29.0461 24.9935 30.2145 23.0767 30.9859C21.1599 31.7573 19.1016 32.1143 17.0369 32.0334Z" fill="#4285F4"></path><path d="M54.6719 21.7824C54.728 23.1489 54.5073 24.5126 54.023 25.7916C53.5388 27.0707 52.801 28.2386 51.854 29.2254C50.9069 30.2121 49.7702 30.9972 48.5121 31.5335C47.254 32.0698 45.9005 32.3462 44.5328 32.3462C43.1652 32.3462 41.8117 32.0698 40.5536 31.5335C39.2955 30.9972 38.1587 30.2121 37.2117 29.2254C36.2647 28.2386 35.5269 27.0707 35.0426 25.7916C34.5584 24.5126 34.3377 23.1489 34.3938 21.7824C34.3377 20.4159 34.5584 19.0521 35.0426 17.7731C35.5269 16.494 36.2647 15.3261 37.2117 14.3394C38.1587 13.3527 39.2955 12.5676 40.5536 12.0313C41.8117 11.495 43.1652 11.2185 44.5328 11.2185C45.9005 11.2185 47.254 11.495 48.5121 12.0313C49.7702 12.5676 50.9069 13.3527 51.854 14.3394C52.801 15.3261 53.5388 16.494 54.023 17.7731C54.5073 19.0521 54.728 20.4159 54.6719 21.7824ZM50.2302 21.7824C50.3055 20.9888 50.2143 20.1882 49.9622 19.4319C49.7102 18.6756 49.3029 17.9804 48.7665 17.3907C48.2302 16.8009 47.5765 16.3298 46.8474 16.0074C46.1184 15.685 45.33 15.5184 44.5328 15.5184C43.7357 15.5184 42.9473 15.685 42.2182 16.0074C41.4892 16.3298 40.8355 16.8009 40.2991 17.3907C39.7628 17.9804 39.3555 18.6756 39.1035 19.4319C38.8514 20.1882 38.7601 20.9888 38.8355 21.7824C38.7601 22.576 38.8514 23.3765 39.1035 24.1328C39.3555 24.8891 39.7628 25.5844 40.2991 26.1741C40.8355 26.7638 41.4892 27.235 42.2182 27.5574C42.9473 27.8798 43.7357 28.0463 44.5328 28.0463C45.33 28.0463 46.1184 27.8798 46.8474 27.5574C47.5765 27.235 48.2302 26.7638 48.7665 26.1741C49.3029 25.5844 49.7102 24.8891 49.9622 24.1328C50.2143 23.3765 50.3055 22.576 50.2302 21.7824Z" fill="#EA4335"></path><path d="M77.4102 21.7824C77.4663 23.1489 77.2456 24.5126 76.7613 25.7916C76.2771 27.0707 75.5393 28.2386 74.5923 29.2254C73.6452 30.2121 72.5085 30.9972 71.2504 31.5335C69.9923 32.0698 68.6388 32.3462 67.2711 32.3462C65.9035 32.3462 64.55 32.0698 63.2918 31.5335C62.0337 30.9972 60.897 30.2121 59.95 29.2254C59.003 28.2386 58.2652 27.0707 57.7809 25.7916C57.2967 24.5126 57.076 23.1489 57.1321 21.7824C57.076 20.4159 57.2967 19.0521 57.7809 17.7731C58.2652 16.494 59.003 15.3261 59.95 14.3394C60.897 13.3527 62.0337 12.5676 63.2918 12.0313C64.55 11.495 65.9035 11.2185 67.2711 11.2185C68.6388 11.2185 69.9923 11.495 71.2504 12.0313C72.5085 12.5676 73.6452 13.3527 74.5923 14.3394C75.5393 15.3261 76.2771 16.494 76.7613 17.7731C77.2456 19.0521 77.4663 20.4159 77.4102 21.7824ZM72.9685 21.7824C73.0294 20.9959 72.927 20.2054 72.6679 19.4604C72.4088 18.7154 71.9984 18.032 71.4627 17.4531C70.9269 16.8742 70.2772 16.4123 69.5544 16.0965C68.8316 15.7806 68.0514 15.6175 67.2626 15.6175C66.4738 15.6175 65.6935 15.7806 64.9708 16.0965C64.248 16.4123 63.5983 16.8742 63.0625 17.4531C62.5267 18.032 62.1164 18.7154 61.8573 19.4604C61.5981 20.2054 61.4958 20.9959 61.5567 21.7824C61.4958 22.5688 61.5981 23.3593 61.8573 24.1043C62.1164 24.8493 62.5267 25.5327 63.0625 26.1116C63.5983 26.6905 64.248 27.1524 64.9708 27.4683C65.6935 27.7841 66.4738 27.9472 67.2626 27.9472C68.0514 27.9472 68.8316 27.7841 69.5544 27.4683C70.2772 27.1524 70.9269 26.6905 71.4627 26.1116C71.9984 25.5327 72.4088 24.8493 72.6679 24.1043C72.927 23.3593 73.0294 22.5688 72.9685 21.7824Z" fill="#FBBC04"></path><path d="M99.5672 12.1815V30.5634C99.5672 38.1143 95.0742 41.2235 89.7784 41.2235C87.8294 41.2342 85.9212 40.6649 84.2968 39.588C82.6723 38.511 81.4049 36.9752 80.6558 35.1759L84.6021 33.4676C84.9997 34.515 85.6987 35.4212 86.6108 36.0718C87.5229 36.7225 88.6073 37.0884 89.7271 37.1234C93.1438 37.1234 95.228 35.0222 95.228 31.11V29.6409H95.1255C94.4421 30.412 93.5993 31.0253 92.6553 31.4382C91.7114 31.8512 90.6889 32.054 89.6588 32.0325C86.9403 32.0325 84.3331 30.9526 82.4109 29.0304C80.4886 27.1081 79.4087 24.5009 79.4087 21.7824C79.4087 19.064 80.4886 16.4568 82.4109 14.5345C84.3331 12.6123 86.9403 11.5324 89.6588 11.5324C90.6853 11.5134 91.7041 11.7139 92.6469 12.1205C93.5896 12.527 94.4347 13.1303 95.1255 13.8899H95.2792V12.1815H99.5672ZM95.5868 21.8508C95.6495 21.0763 95.5557 20.297 95.311 19.5595C95.0663 18.822 94.6757 18.1412 94.1624 17.5578C93.6492 16.9744 93.0237 16.5002 92.3234 16.1636C91.623 15.8269 90.8621 15.6347 90.0859 15.5982C89.2975 15.6266 88.5226 15.8116 87.8064 16.1425C87.0902 16.4734 86.4471 16.9435 85.9144 17.5255C85.3817 18.1074 84.9702 18.7896 84.7039 19.5322C84.4375 20.2748 84.3216 21.0629 84.3629 21.8508C84.3263 22.6333 84.446 23.4152 84.7151 24.1509C84.9841 24.8866 85.3972 25.5613 85.93 26.1355C86.4629 26.7097 87.1049 27.1719 87.8184 27.4951C88.532 27.8183 89.3028 27.9961 90.0859 28.0179C90.859 27.9905 91.6185 27.8065 92.3186 27.4773C93.0186 27.148 93.6446 26.6802 94.1588 26.1022C94.673 25.5241 95.0646 24.8479 95.31 24.1142C95.5554 23.3806 95.6496 22.6048 95.5868 21.8337V21.8508Z" fill="#4285F4"></path><path d="M107.477 1.31641V31.4175H102.967V1.31641H107.477Z" fill="#34A853"></path><path d="M125.243 25.1649L128.763 27.5566C127.823 28.9588 126.552 30.1072 125.062 30.8999C123.572 31.6927 121.909 32.1052 120.221 32.1008C118.878 32.12 117.546 31.8666 116.304 31.3559C115.062 30.8451 113.937 30.0877 112.996 29.1295C112.055 28.1712 111.319 27.0321 110.831 25.781C110.343 24.5298 110.115 23.1928 110.159 21.8507C109.959 19.5435 110.615 17.2433 112.002 15.3887C113.389 13.5341 115.41 12.2547 117.679 11.7945C119.949 11.3342 122.309 11.7252 124.309 12.893C126.309 14.0608 127.809 15.9236 128.524 18.1265L128.985 19.3053L115.318 24.9599C115.744 25.9171 116.447 26.7248 117.336 27.279C118.225 27.8332 119.259 28.1083 120.306 28.0691C121.309 28.0464 122.289 27.7676 123.153 27.2592C124.017 26.7509 124.737 26.0299 125.243 25.1649ZM114.464 21.4749L123.655 17.6823C123.287 17.002 122.73 16.4429 122.05 16.073C121.371 15.7031 120.599 15.5381 119.828 15.5981C119.09 15.631 118.365 15.8092 117.696 16.1225C117.026 16.4358 116.425 16.878 115.927 17.4239C115.429 17.9698 115.043 18.6085 114.792 19.3037C114.541 19.9988 114.429 20.7366 114.464 21.4749Z" fill="#EA4335"></path></g><defs><clipPath id="clip0_3373_4088"><rect width="236.35" height="41.0004" fill="white" transform="translate(0.824707 0.223022)"></rect></clipPath></defs></svg> 