<?xml version="1.0" encoding="UTF-8"?> <svg xmlns="http://www.w3.org/2000/svg" width="111" height="111" viewBox="0 0 111 111" fill="none"><g clip-path="url(#clip0_3373_4090)"><path d="M34.3878 52.8225C34.3878 53.9826 34.5168 54.9232 34.7427 55.613C35.0008 56.3028 35.3235 57.0553 35.7752 57.8705C35.9365 58.1214 36.0011 58.3722 36.0011 58.5917C36.0011 58.9052 35.8075 59.2188 35.388 59.5323L33.3553 60.8492C33.0649 61.0373 32.7745 61.1314 32.5164 61.1314C32.1937 61.1314 31.871 60.9746 31.5484 60.6924C31.0967 60.2221 30.7095 59.7204 30.3868 59.2188C30.0642 58.6857 29.7415 58.09 29.3866 57.3689C26.8698 60.2535 23.7078 61.6958 19.9004 61.6958C17.1901 61.6958 15.0283 60.9433 13.4472 59.4382C11.8662 57.9332 11.0596 55.9266 11.0596 53.4182C11.0596 50.7531 12.0275 48.5897 13.9958 46.9592C15.964 45.3288 18.5775 44.5136 21.9009 44.5136C22.9979 44.5136 24.1272 44.6077 25.3211 44.7644C26.5149 44.9212 27.741 45.172 29.0317 45.4542V43.1654C29.0317 40.7824 28.5154 39.1207 27.5152 38.1487C26.4826 37.1767 24.7403 36.7064 22.2558 36.7064C21.1265 36.7064 19.9649 36.8318 18.7711 37.114C17.5773 37.3962 16.4157 37.7411 15.2864 38.18C14.7701 38.3995 14.383 38.5249 14.1571 38.5876C13.9312 38.6504 13.7699 38.6817 13.6408 38.6817C13.1891 38.6817 12.9633 38.3682 12.9633 37.7097V36.1734C12.9633 35.6717 13.0278 35.2954 13.1891 35.076C13.3504 34.8565 13.6408 34.637 14.0926 34.4175C15.2219 33.8532 16.577 33.3828 18.1581 33.0066C19.7391 32.599 21.4169 32.4109 23.1915 32.4109C27.0312 32.4109 29.8383 33.2574 31.6452 34.9506C33.4198 36.6437 34.3233 39.2147 34.3233 42.6637V52.8225H34.3878ZM21.2878 57.5883C22.3526 57.5883 23.4497 57.4002 24.6112 57.024C25.7728 56.6477 26.8053 55.9579 27.6765 55.0173C28.1927 54.4216 28.5799 53.7631 28.7735 53.0106C28.9671 52.2581 29.0962 51.3488 29.0962 50.2828V48.9659C28.1605 48.7464 27.1602 48.5583 26.1277 48.4329C25.0952 48.3075 24.095 48.2448 23.0947 48.2448C20.9329 48.2448 19.3519 48.6524 18.2871 49.4989C17.2223 50.3455 16.7061 51.537 16.7061 53.1047C16.7061 54.5783 17.0933 55.6757 17.8999 56.4282C18.6743 57.2121 19.8036 57.5883 21.2878 57.5883ZM47.1973 60.9746C46.6165 60.9746 46.2294 60.8805 45.9712 60.6611C45.7131 60.4729 45.4872 60.034 45.2936 59.4382L37.7112 35.2014C37.5176 34.5743 37.4208 34.1667 37.4208 33.9472C37.4208 33.4455 37.6789 33.1634 38.1952 33.1634H41.3572C41.9703 33.1634 42.3897 33.2574 42.6156 33.4769C42.8737 33.665 43.0673 34.104 43.2609 34.6997L48.6816 55.4563L53.715 34.6997C53.8764 34.0726 54.07 33.665 54.3281 33.4769C54.5862 33.2888 55.0379 33.1634 55.6187 33.1634H58.2C58.813 33.1634 59.2325 33.2574 59.4906 33.4769C59.7487 33.665 59.9746 34.104 60.1037 34.6997L65.2017 55.7071L70.7837 34.6997C70.9773 34.0726 71.2031 33.665 71.429 33.4769C71.6871 33.2888 72.1066 33.1634 72.6874 33.1634H75.6881C76.2043 33.1634 76.4947 33.4142 76.4947 33.9472C76.4947 34.104 76.4625 34.2608 76.4302 34.4489C76.3979 34.637 76.3334 34.8878 76.2043 35.2327L68.4283 59.4696C68.2347 60.0967 68.0088 60.5043 67.7507 60.6924C67.4926 60.8805 67.0731 61.006 66.5246 61.006H63.7497C63.1367 61.006 62.7172 60.9119 62.4591 60.6924C62.201 60.4729 61.9751 60.0653 61.846 59.4382L56.8448 39.2147L51.8759 59.4069C51.7146 60.034 51.521 60.4416 51.2628 60.6611C51.0047 60.8805 50.553 60.9746 49.9722 60.9746H47.1973ZM88.659 61.8212C86.9811 61.8212 85.3033 61.6331 83.69 61.2568C82.0767 60.8805 80.8184 60.4729 79.9794 60.0026C79.4632 59.7204 79.1083 59.4069 78.9792 59.1247C78.8501 58.8425 78.7856 58.529 78.7856 58.2468V56.6477C78.7856 55.9893 79.0437 55.6757 79.5277 55.6757C79.7213 55.6757 79.9149 55.7071 80.1085 55.7698C80.3021 55.8325 80.5925 55.9579 80.9152 56.0833C82.0122 56.5537 83.206 56.9299 84.4644 57.1807C85.755 57.4316 87.0134 57.557 88.304 57.557C90.3368 57.557 91.9178 57.2121 93.0148 56.5223C94.1119 55.8325 94.6927 54.8292 94.6927 53.5436C94.6927 52.6657 94.4023 51.9446 93.8215 51.3488C93.2407 50.7531 92.1437 50.2201 90.5626 49.7184L85.8841 48.3075C83.5287 47.5863 81.7863 46.5203 80.7215 45.1093C79.6568 43.7298 79.1083 42.1934 79.1083 40.563C79.1083 39.2461 79.3987 38.086 79.9794 37.0826C80.5602 36.0793 81.3346 35.2014 82.3026 34.5116C83.2706 33.7904 84.3676 33.2574 85.6582 32.8812C86.9489 32.5049 88.304 32.3481 89.7237 32.3481C90.4336 32.3481 91.1757 32.3795 91.8855 32.4736C92.6277 32.5676 93.3052 32.693 93.9828 32.8185C94.6281 32.9752 95.2412 33.132 95.822 33.3201C96.4028 33.5083 96.8545 33.6964 97.1771 33.8845C97.6289 34.1353 97.9515 34.3862 98.1451 34.6684C98.3387 34.9192 98.4355 35.2641 98.4355 35.7031V37.1767C98.4355 37.8351 98.1774 38.18 97.6934 38.18C97.4353 38.18 97.0158 38.0546 96.4673 37.8038C94.6281 36.9886 92.5631 36.581 90.2722 36.581C88.4331 36.581 86.9811 36.8632 85.9809 37.4589C84.9806 38.0546 84.4644 38.9639 84.4644 40.2494C84.4644 41.1273 84.7871 41.8798 85.4324 42.4756C86.0777 43.0713 87.2715 43.667 88.9816 44.2001L93.5634 45.611C95.8865 46.3322 97.5643 47.3355 98.5646 48.621C99.5648 49.9065 100.049 51.3802 100.049 53.0106C100.049 54.3589 99.7584 55.5817 99.2099 56.6477C98.6291 57.7138 97.8547 58.6544 96.8545 59.4069C95.8542 60.1908 94.6604 60.7551 93.273 61.1627C91.821 61.6017 90.3045 61.8212 88.659 61.8212Z" fill="#252F3E"></path><path fill-rule="evenodd" clip-rule="evenodd" d="M86.7541 71.7605C90.2066 71.3529 97.8213 70.475 99.1765 72.1681C100.532 73.8299 97.66 80.8219 96.3693 83.926C95.9821 84.8666 96.8211 85.2428 97.6922 84.5217C103.371 79.8813 104.855 70.1928 103.694 68.7819C102.532 67.4023 92.562 66.2108 86.496 70.3496C85.5603 71.008 85.7216 71.8859 86.7541 71.7605ZM55.456 88.723C68.7173 88.723 84.1403 84.6783 94.7558 77.0592C96.4982 75.8051 94.9817 73.8925 93.2071 74.6763C81.3009 79.5676 68.3623 81.9505 56.5853 81.9505C39.1295 81.9505 22.2544 77.2787 8.5737 69.5656C7.37986 68.8758 6.47642 70.0672 7.47666 70.9451C20.1249 82.0446 36.8709 88.723 55.456 88.723Z" fill="#FF9900"></path></g><defs><clipPath id="clip0_3373_4090"><rect width="99" height="56.375" fill="white" transform="translate(6.16699 32.3481)"></rect></clipPath></defs></svg> 