<?xml version="1.0" encoding="UTF-8"?> <svg xmlns="http://www.w3.org/2000/svg" width="48" height="48" viewBox="0 0 48 48" fill="none"><g clip-path="url(#clip0_3373_3899)"><path d="M13.7602 10.24L5.74023 18.26" stroke="#0A6190" stroke-width="3" stroke-linecap="round" stroke-linejoin="round"></path><path d="M28.6203 12.64L19.2803 10.16" stroke="#0A6190" stroke-width="3" stroke-linecap="round" stroke-linejoin="round"></path><path d="M40.7801 5.78003L33.6201 11.38" stroke="#0A6190" stroke-width="3" stroke-linecap="round" stroke-linejoin="round"></path><path d="M16.5 12C18.1569 12 19.5 10.6569 19.5 9C19.5 7.34315 18.1569 6 16.5 6C14.8431 6 13.5 7.34315 13.5 9C13.5 10.6569 14.8431 12 16.5 12Z" stroke="#4C99A4" stroke-width="3" stroke-linecap="round" stroke-linejoin="round"></path><path d="M43.5 7.5C45.1569 7.5 46.5 6.15685 46.5 4.5C46.5 2.84315 45.1569 1.5 43.5 1.5C41.8431 1.5 40.5 2.84315 40.5 4.5C40.5 6.15685 41.8431 7.5 43.5 7.5Z" stroke="#4C99A4" stroke-width="3" stroke-linecap="round" stroke-linejoin="round"></path><path d="M31.5 16.5C33.1569 16.5 34.5 15.1569 34.5 13.5C34.5 11.8431 33.1569 10.5 31.5 10.5C29.8431 10.5 28.5 11.8431 28.5 13.5C28.5 15.1569 29.8431 16.5 31.5 16.5Z" stroke="#4C99A4" stroke-width="3" stroke-linecap="round" stroke-linejoin="round"></path><path d="M4.5 24C6.15685 24 7.5 22.6569 7.5 21C7.5 19.3431 6.15685 18 4.5 18C2.84315 18 1.5 19.3431 1.5 21C1.5 22.6569 2.84315 24 4.5 24Z" stroke="#4C99A4" stroke-width="3" stroke-linecap="round" stroke-linejoin="round"></path><path d="M12 35.5H6C5.60379 35.5052 5.22526 35.6649 4.94507 35.9451C4.66488 36.2253 4.50518 36.6038 4.5 37V46.5H13.5V37C13.5 36.6022 13.342 36.2206 13.0607 35.9393C12.7794 35.658 12.3978 35.5 12 35.5Z" stroke="#4C99A4" stroke-width="3" stroke-linecap="round" stroke-linejoin="round"></path><path d="M27 21.5H21C20.6038 21.5052 20.2253 21.6649 19.9451 21.9451C19.6649 22.2253 19.5052 22.6038 19.5 23V46.5H28.5V23C28.5 22.6022 28.342 22.2206 28.0607 21.9393C27.7794 21.658 27.3978 21.5 27 21.5Z" stroke="#4C99A4" stroke-width="3" stroke-linecap="round" stroke-linejoin="round"></path><path d="M42 29.5H36C35.6038 29.5052 35.2253 29.6649 34.9451 29.9451C34.6649 30.2253 34.5052 30.6038 34.5 31V46.5H43.5V31C43.5 30.6022 43.342 30.2206 43.0607 29.9393C42.7794 29.658 42.3978 29.5 42 29.5V29.5Z" stroke="#4C99A4" stroke-width="3" stroke-linecap="round" stroke-linejoin="round"></path><path d="M1.5 46.5H46.5" stroke="#0A6190" stroke-width="3" stroke-linecap="round" stroke-linejoin="round"></path></g><defs><clipPath id="clip0_3373_3899"><rect width="48" height="48" fill="white"></rect></clipPath></defs></svg> 