<?xml version="1.0" encoding="UTF-8"?> <svg xmlns="http://www.w3.org/2000/svg" width="48" height="48" viewBox="0 0 48 48" fill="none"><path d="M32.0466 32.5168L30.5273 43.6821C30.4731 43.9809 30.5157 44.2892 30.6489 44.5621C30.7821 44.835 30.999 45.0583 31.2679 45.1994C31.5368 45.3406 31.8437 45.3922 32.144 45.3468C32.4442 45.3013 32.7222 45.1613 32.9373 44.9469L36.8287 41.0536L40.7201 44.9469C40.9353 45.1613 41.2132 45.3013 41.5135 45.3468C41.8138 45.3922 42.1207 45.3406 42.3896 45.1994C42.6585 45.0583 42.8753 44.835 43.0085 44.5621C43.1417 44.2892 43.1844 43.9809 43.1302 43.6821L41.6108 32.5168" stroke="#0A6190" stroke-width="3.18249" stroke-linecap="round" stroke-linejoin="round"></path><path d="M36.8192 33.9736C41.5392 33.9736 45.3655 30.1474 45.3655 25.4274C45.3655 20.7074 41.5392 16.8811 36.8192 16.8811C32.0992 16.8811 28.2729 20.7074 28.2729 25.4274C28.2729 30.1474 32.0992 33.9736 36.8192 33.9736Z" stroke="#0A6190" stroke-width="3.18249" stroke-linecap="round" stroke-linejoin="round"></path><path d="M8.95898 8.69189H24.6095" stroke="#0A6190" stroke-width="3.18249" stroke-linecap="round"></path><path d="M8.95898 22.4043H21.0323" stroke="#0A6190" stroke-width="3.18249" stroke-linecap="round"></path><path d="M22.5756 33.9737H2.63428V2.63733H45.3656V11.1836" stroke="#4C99A4" stroke-width="3.18249" stroke-linecap="round" stroke-linejoin="round"></path><path d="M8.95898 14.3561H17.306" stroke="#4C99A4" stroke-width="3.18249" stroke-linecap="round"></path><path d="M36.8286 24C36.545 24 36.2677 24.0841 36.0319 24.2417C35.796 24.3993 35.6122 24.6232 35.5037 24.8853C35.3952 25.1473 35.3668 25.4357 35.4221 25.7138C35.4774 25.992 35.614 26.2476 35.8146 26.4481C36.0151 26.6487 36.2706 26.7853 36.5488 26.8406C36.827 26.8959 37.1154 26.8675 37.3774 26.759C37.6394 26.6504 37.8634 26.4666 38.021 26.2308C38.1786 25.995 38.2627 25.7177 38.2627 25.4341C38.2627 25.0537 38.1116 24.689 37.8426 24.42C37.5737 24.1511 37.2089 24 36.8286 24Z" fill="#0A6190" stroke="#0A6190" stroke-linecap="round" stroke-linejoin="round"></path></svg> 