<?xml version="1.0" encoding="UTF-8"?> <svg xmlns="http://www.w3.org/2000/svg" width="261" height="41" viewBox="0 0 261 41" fill="none"><g clip-path="url(#clip0_3373_4113)"><g clip-path="url(#clip1_3373_4113)"><path d="M36.4894 29.2316V22.184L35.7282 21.7078L17.459 31.7078L0.141383 22.184V18.0887L17.459 27.5173L36.5846 17.1364V10.184L35.8234 9.70779L17.459 19.803L0.807447 10.6602L17.459 1.51731L30.8755 8.85064L31.9221 8.27922V7.51731L17.459 -0.387451L-1.6665 9.9935V11.0411L17.459 21.5173L34.7767 11.9935V16.184L17.459 25.7078L-0.905288 15.6125L-1.6665 16.0887V23.1364L17.459 33.5173L34.7767 24.0887V28.184L17.459 37.7078L-0.905288 27.7078L-1.6665 28.184V29.2316L17.459 39.6125L36.4894 29.2316Z" fill="#FF3621"></path><path fill-rule="evenodd" clip-rule="evenodd" d="M72.8373 1.70776V33.803H67.6991V31.422C67.6991 31.2316 67.6039 31.0411 67.4136 31.0411C67.2233 30.9459 67.033 31.0411 66.9379 31.1363C65.13 33.1363 62.4657 34.3744 59.516 34.3744C56.4712 34.3744 53.6166 33.1363 51.5233 31.0411C49.4299 28.8506 48.2881 25.8982 48.2881 22.6601C48.2881 16.0887 53.236 10.9459 59.516 10.9459C62.4657 10.9459 65.2251 12.0887 66.9379 13.9935C67.033 14.0887 67.2233 14.184 67.4136 14.0887C67.6039 13.9935 67.6991 13.8982 67.6991 13.7078V1.70776H72.8373ZM53.4263 22.6601C53.4263 26.7554 56.5663 29.8982 60.6578 29.8982C64.7494 29.8982 67.8894 26.7554 67.8894 22.6601C67.8894 18.5649 64.7494 15.422 60.6578 15.422C56.6615 15.422 53.4263 18.5649 53.4263 22.6601Z" fill="#1B3139"></path><path fill-rule="evenodd" clip-rule="evenodd" d="M100.051 11.422V33.8029H95.0077V31.422C95.0077 31.2315 94.9125 31.041 94.7222 31.041C94.5319 30.9458 94.3416 31.041 94.2465 31.1363C92.4386 33.2315 89.7743 34.3744 86.8246 34.3744C80.5446 34.3744 75.5967 29.2315 75.5967 22.6601C75.5967 16.0887 80.5446 10.9458 86.8246 10.9458C89.8695 10.9458 92.5337 11.9934 94.2465 13.9934C94.3416 14.0887 94.5319 14.1839 94.7222 14.0887C94.9125 13.9934 95.0077 13.8982 95.0077 13.7077V11.422H100.051ZM80.7349 22.6601C80.7349 26.7553 83.8749 29.8982 87.9664 29.8982C92.058 29.8982 95.198 26.7553 95.198 22.6601C95.198 18.5648 92.058 15.422 87.9664 15.422C83.9701 15.422 80.7349 18.5648 80.7349 22.6601Z" fill="#1B3139"></path><path fill-rule="evenodd" clip-rule="evenodd" d="M143.345 11.422V33.8029H138.302V31.422C138.302 31.2315 138.207 31.041 138.017 31.041C137.826 30.9458 137.636 31.041 137.541 31.1363C135.733 33.2315 133.069 34.3744 130.119 34.3744C123.839 34.3744 118.891 29.2315 118.891 22.6601C118.891 16.0887 123.839 10.9458 130.119 10.9458C133.164 10.9458 135.828 11.9934 137.541 13.9934C137.636 14.0887 137.826 14.1839 138.017 14.0887C138.207 13.9934 138.302 13.8982 138.302 13.7077V11.422H143.345ZM124.029 22.6601C124.029 26.7553 127.169 29.8982 131.261 29.8982C135.352 29.8982 138.492 26.7553 138.492 22.6601C138.492 18.5648 135.352 15.422 131.261 15.422C127.169 15.422 124.029 18.5648 124.029 22.6601Z" fill="#1B3139"></path><path fill-rule="evenodd" clip-rule="evenodd" d="M152.86 31.1363C152.765 31.1363 152.765 31.1363 152.67 31.1363C152.479 31.2316 152.384 31.3268 152.384 31.5173V33.803H147.246V1.70776H152.384V13.803C152.384 13.9935 152.479 14.184 152.67 14.184C152.86 14.2792 153.05 14.184 153.146 14.0887C154.953 12.0887 157.618 10.8506 160.567 10.8506C163.612 10.8506 166.467 12.0887 168.56 14.184C170.653 16.3744 171.795 19.3268 171.795 22.5649C171.795 29.1363 166.847 34.2792 160.567 34.2792C157.618 34.2792 154.858 33.1363 153.146 31.2316C153.05 31.2316 152.955 31.1363 152.86 31.1363ZM159.426 15.422C155.334 15.422 152.194 18.5649 152.194 22.6601C152.194 26.7554 155.334 29.8982 159.426 29.8982C163.517 29.8982 166.657 26.7554 166.657 22.6601C166.657 18.5649 163.422 15.422 159.426 15.422Z" fill="#1B3139"></path><path d="M186.544 15.9934C187.02 15.9934 187.495 15.9934 187.781 16.0887V11.041C187.591 11.041 187.305 10.9458 186.925 10.9458C184.26 10.9458 181.786 12.2791 180.549 14.3744C180.454 14.5648 180.264 14.6601 180.074 14.5648C179.883 14.4696 179.788 14.3744 179.788 14.1839V11.422H174.745V33.8029H179.883V23.9934C179.693 19.041 182.357 15.9934 186.544 15.9934Z" fill="#1B3139"></path><path d="M196.059 11.4221H190.921V33.8031H196.059V11.4221Z" fill="#1B3139"></path><path d="M193.49 1.70776C191.777 1.70776 190.35 3.0411 190.35 4.75538C190.35 6.46967 191.777 7.803 193.49 7.803C195.203 7.803 196.63 6.46967 196.63 4.75538C196.63 3.13634 195.203 1.70776 193.49 1.70776Z" fill="#1B3139"></path><path d="M211.283 10.9458C204.242 10.9458 199.104 15.8982 199.104 22.6601C199.104 25.9934 200.341 28.9458 202.529 31.041C204.718 33.1363 207.858 34.3744 211.283 34.3744C214.138 34.3744 216.422 33.8029 220.608 30.8506L217.754 27.8982C215.66 29.2315 213.757 29.8982 211.854 29.8982C207.573 29.8982 204.337 26.7553 204.337 22.6601C204.337 18.5648 207.573 15.422 211.854 15.422C213.853 15.422 215.756 16.0887 217.659 17.422L220.894 14.4696C216.993 11.2315 213.567 10.9458 211.283 10.9458Z" fill="#1B3139"></path><path d="M229.458 23.9935C229.553 23.8982 229.648 23.8982 229.743 23.8982C229.838 23.8982 229.934 23.9935 230.029 24.0887L238.212 33.8982H244.492L233.93 21.5173C233.74 21.3268 233.835 21.1363 233.93 20.9459L243.635 11.5173H237.451L229.077 19.6125C228.982 19.7078 228.792 19.803 228.601 19.7078C228.411 19.6125 228.316 19.5173 228.316 19.3268V1.70776H223.178V33.803H228.316V25.1363C228.316 25.0411 228.411 24.9459 228.411 24.8506L229.458 23.9935Z" fill="#1B3139"></path><path d="M252.96 34.3744C257.147 34.3744 261.429 31.8982 261.429 27.2315C261.429 24.1839 259.431 22.0887 255.339 20.7553L252.58 19.8982C250.677 19.3268 249.82 18.4696 249.82 17.2315C249.82 15.8982 251.057 14.9458 252.865 14.9458C254.578 14.9458 256.1 15.9934 257.052 17.8982L261.144 15.8029C259.621 12.7553 256.481 10.9458 252.865 10.9458C248.298 10.9458 244.968 13.8029 244.968 17.7077C244.968 20.8506 246.871 22.9458 250.772 24.0887L253.627 24.9458C255.625 25.5172 256.481 26.2791 256.481 27.6125C256.481 29.5172 254.673 30.1839 253.151 30.1839C251.057 30.1839 249.25 28.8506 248.298 26.7553L244.111 28.8506C245.443 32.2791 248.869 34.3744 252.96 34.3744Z" fill="#1B3139"></path><path d="M114.228 34.184C115.846 34.184 117.273 34.0888 118.13 33.8983V29.6126C117.464 29.7078 116.322 29.803 115.56 29.803C113.467 29.803 111.945 29.4221 111.945 25.1364V15.9935C111.945 15.803 112.135 15.6126 112.42 15.6126H117.368V11.6126H112.42C112.135 11.6126 111.945 11.4221 111.945 11.2316V4.56494H106.902V11.0411C106.902 11.2316 106.711 11.4221 106.426 11.4221H102.905V15.4221H106.426C106.711 15.4221 106.902 15.6126 106.902 15.803V26.184C106.807 34.184 112.23 34.184 114.228 34.184Z" fill="#1B3139"></path></g></g><defs><clipPath id="clip0_3373_4113"><rect width="260" height="40.221" fill="white" transform="translate(0.333496 0.612549)"></rect></clipPath><clipPath id="clip1_3373_4113"><rect width="263" height="40" fill="white" transform="translate(-1.6665 -0.387451)"></rect></clipPath></defs></svg> 