<?xml version="1.0" encoding="UTF-8"?> <svg xmlns="http://www.w3.org/2000/svg" width="48" height="48" viewBox="0 0 48 48" fill="none"><path d="M28.5 18.006L24 31.506" stroke="#4C99A4" stroke-width="3" stroke-linecap="round" stroke-linejoin="round"></path><path d="M18 39V37.5C18 35.9087 18.6321 34.3826 19.7574 33.2574C20.8826 32.1321 22.4087 31.5 24 31.5C25.5913 31.5 27.1174 32.1321 28.2426 33.2574C29.3679 34.3826 30 35.9087 30 37.5V39" stroke="#0A6190" stroke-width="3" stroke-linecap="round" stroke-linejoin="round"></path><path d="M24.0002 9C21.0227 9.0225 18.0787 9.6313 15.3365 10.7916C12.5943 11.952 10.1075 13.6411 8.01813 15.7626C5.92877 17.8841 4.27777 20.3964 3.15941 23.156C2.04106 25.9156 1.47725 28.8685 1.50018 31.846V36C1.50018 36.7956 1.81626 37.5587 2.37886 38.1213C2.94147 38.6839 3.70454 39 4.50018 39H43.5002C44.2958 39 45.0589 38.6839 45.6215 38.1213C46.1841 37.5587 46.5002 36.7956 46.5002 36V31.84C46.5449 25.8277 44.1996 20.0437 39.9801 15.7605C35.7606 11.4772 30.0125 9.04545 24.0002 9Z" stroke="#4C99A4" stroke-width="3" stroke-linecap="round" stroke-linejoin="round"></path><path d="M9.75 30C9.60166 30 9.45666 30.044 9.33332 30.1264C9.20999 30.2088 9.11386 30.3259 9.05709 30.463C9.00033 30.6 8.98547 30.7508 9.01441 30.8963C9.04335 31.0418 9.11478 31.1754 9.21967 31.2803C9.32456 31.3852 9.4582 31.4566 9.60368 31.4856C9.74917 31.5145 9.89997 31.4997 10.037 31.4429C10.1741 31.3861 10.2912 31.29 10.3736 31.1667C10.456 31.0433 10.5 30.8983 10.5 30.75C10.5 30.5511 10.421 30.3603 10.2803 30.2197C10.1397 30.079 9.94891 30 9.75 30Z" fill="#0A6190" stroke="#0A6190" stroke-width="3" stroke-linecap="round" stroke-linejoin="round"></path><path d="M12.75 22.506C12.6017 22.506 12.4567 22.55 12.3333 22.6324C12.21 22.7148 12.1139 22.8319 12.0571 22.969C12.0003 23.106 11.9855 23.2568 12.0144 23.4023C12.0434 23.5478 12.1148 23.6814 12.2197 23.7863C12.3246 23.8912 12.4582 23.9626 12.6037 23.9916C12.7492 24.0205 12.9 24.0057 13.037 23.9489C13.1741 23.8921 13.2912 23.796 13.3736 23.6727C13.456 23.5493 13.5 23.4043 13.5 23.256C13.5 23.0571 13.421 22.8663 13.2803 22.7257C13.1397 22.585 12.9489 22.506 12.75 22.506Z" fill="#0A6190" stroke="#0A6190" stroke-width="3" stroke-linecap="round" stroke-linejoin="round"></path><path d="M38.25 30C38.1017 30 37.9567 30.044 37.8333 30.1264C37.71 30.2088 37.6139 30.3259 37.5571 30.463C37.5003 30.6 37.4855 30.7508 37.5144 30.8963C37.5434 31.0418 37.6148 31.1754 37.7197 31.2803C37.8246 31.3852 37.9582 31.4566 38.1037 31.4856C38.2492 31.5145 38.4 31.4997 38.537 31.4429C38.6741 31.3861 38.7912 31.29 38.8736 31.1667C38.956 31.0433 39 30.8983 39 30.75C39 30.5511 38.921 30.3603 38.7803 30.2197C38.6397 30.079 38.4489 30 38.25 30Z" fill="#0A6190" stroke="#0A6190" stroke-width="3" stroke-linecap="round" stroke-linejoin="round"></path><path d="M35.25 22.506C35.1017 22.506 34.9567 22.55 34.8333 22.6324C34.71 22.7148 34.6139 22.8319 34.5571 22.969C34.5003 23.106 34.4855 23.2568 34.5144 23.4023C34.5434 23.5478 34.6148 23.6814 34.7197 23.7863C34.8246 23.8912 34.9582 23.9626 35.1037 23.9916C35.2492 24.0205 35.4 24.0057 35.537 23.9489C35.6741 23.8921 35.7912 23.796 35.8736 23.6727C35.956 23.5493 36 23.4043 36 23.256C36 23.0571 35.921 22.8663 35.7803 22.7257C35.6397 22.585 35.4489 22.506 35.25 22.506Z" fill="#0A6190" stroke="#0A6190" stroke-width="3" stroke-linecap="round" stroke-linejoin="round"></path><path d="M21.4985 17.256C21.3502 17.256 21.2052 17.3 21.0819 17.3824C20.9585 17.4648 20.8624 17.5819 20.8056 17.719C20.7489 17.856 20.734 18.0068 20.7629 18.1523C20.7919 18.2978 20.8633 18.4314 20.9682 18.5363C21.0731 18.6412 21.2067 18.7126 21.3522 18.7416C21.4977 18.7705 21.6485 18.7557 21.7855 18.6989C21.9226 18.6421 22.0397 18.546 22.1221 18.4227C22.2045 18.2993 22.2485 18.1543 22.2485 18.006C22.2485 17.8071 22.1695 17.6163 22.0289 17.4757C21.8882 17.335 21.6974 17.256 21.4985 17.256Z" fill="#0A6190" stroke="#0A6190" stroke-width="3" stroke-linecap="round" stroke-linejoin="round"></path></svg> 