<?xml version="1.0" encoding="UTF-8"?> <svg xmlns="http://www.w3.org/2000/svg" width="48" height="48" viewBox="0 0 48 48" fill="none"><g clip-path="url(#clip0_3373_3895)"><path d="M7.8042 37.872L14.6962 22.12" stroke="#0A6190" stroke-width="3" stroke-linecap="round" stroke-linejoin="round"></path><path d="M20.0142 20.808L27.9862 27.186" stroke="#0A6190" stroke-width="3" stroke-linecap="round" stroke-linejoin="round"></path><path d="M40.1962 10.12L33.3042 25.872" stroke="#0A6190" stroke-width="3" stroke-linecap="round" stroke-linejoin="round"></path><path d="M1.5 41.996C1.5 42.5869 1.6164 43.1721 1.84254 43.718C2.06869 44.264 2.40016 44.7601 2.81802 45.178C3.23588 45.5958 3.73196 45.9273 4.27792 46.1534C4.82389 46.3796 5.40905 46.496 6 46.496C6.59095 46.496 7.17611 46.3796 7.72208 46.1534C8.26804 45.9273 8.76412 45.5958 9.18198 45.178C9.59984 44.7601 9.93131 44.264 10.1575 43.718C10.3836 43.1721 10.5 42.5869 10.5 41.996C10.5 41.405 10.3836 40.8199 10.1575 40.2739C9.93131 39.7279 9.59984 39.2319 9.18198 38.814C8.76412 38.3961 8.26804 38.0647 7.72208 37.8385C7.17611 37.6124 6.59095 37.496 6 37.496C5.40905 37.496 4.82389 37.6124 4.27792 37.8385C3.73196 38.0647 3.23588 38.3961 2.81802 38.814C2.40016 39.2319 2.06869 39.7279 1.84254 40.2739C1.6164 40.8199 1.5 41.405 1.5 41.996V41.996Z" stroke="#4C99A4" stroke-width="3" stroke-linecap="round" stroke-linejoin="round"></path><path d="M12 17.996C12 18.5869 12.1164 19.1721 12.3425 19.718C12.5687 20.264 12.9002 20.7601 13.318 21.178C13.7359 21.5958 14.232 21.9273 14.7779 22.1534C15.3239 22.3796 15.9091 22.496 16.5 22.496C17.0909 22.496 17.6761 22.3796 18.2221 22.1534C18.768 21.9273 19.2641 21.5958 19.682 21.178C20.0998 20.7601 20.4313 20.264 20.6575 19.718C20.8836 19.1721 21 18.5869 21 17.996C21 17.405 20.8836 16.8199 20.6575 16.2739C20.4313 15.7279 20.0998 15.2319 19.682 14.814C19.2641 14.3961 18.768 14.0647 18.2221 13.8385C17.6761 13.6124 17.0909 13.496 16.5 13.496C15.9091 13.496 15.3239 13.6124 14.7779 13.8385C14.232 14.0647 13.7359 14.3961 13.318 14.814C12.9002 15.2319 12.5687 15.7279 12.3425 16.2739C12.1164 16.8199 12 17.405 12 17.996V17.996Z" stroke="#4C99A4" stroke-width="3" stroke-linecap="round" stroke-linejoin="round"></path><path d="M27 29.996C27 31.1894 27.4741 32.334 28.318 33.178C29.1619 34.0219 30.3065 34.496 31.5 34.496C32.6935 34.496 33.8381 34.0219 34.682 33.178C35.5259 32.334 36 31.1894 36 29.996C36 28.8025 35.5259 27.6579 34.682 26.814C33.8381 25.9701 32.6935 25.496 31.5 25.496C30.3065 25.496 29.1619 25.9701 28.318 26.814C27.4741 27.6579 27 28.8025 27 29.996V29.996Z" stroke="#4C99A4" stroke-width="3" stroke-linecap="round" stroke-linejoin="round"></path><path d="M37.5 5.99597C37.5 7.18945 37.9741 8.33404 38.818 9.17795C39.6619 10.0219 40.8065 10.496 42 10.496C43.1935 10.496 44.3381 10.0219 45.182 9.17795C46.0259 8.33404 46.5 7.18945 46.5 5.99597C46.5 4.8025 46.0259 3.6579 45.182 2.81399C44.3381 1.97008 43.1935 1.49597 42 1.49597C40.8065 1.49597 39.6619 1.97008 38.818 2.81399C37.9741 3.6579 37.5 4.8025 37.5 5.99597V5.99597Z" stroke="#4C99A4" stroke-width="3" stroke-linecap="round" stroke-linejoin="round"></path></g><defs><clipPath id="clip0_3373_3895"><rect width="48" height="48" fill="white"></rect></clipPath></defs></svg> 