<?xml version="1.0" encoding="UTF-8"?> <svg xmlns="http://www.w3.org/2000/svg" width="181" height="51" viewBox="0 0 181 51" fill="none"><path d="M74.5465 30.0664L82.3001 50.3236H78.3535L76.5373 45.2593H68.4344L66.6881 50.2887H62.7764L70.53 30.0315L74.5465 30.0664ZM72.416 33.8035L69.3774 42.3255H75.5594L72.5208 33.8035H72.416Z" fill="black"></path><path d="M84.0119 35.7944H95.7821V37.1566L88.0634 47.5995H95.8519V50.3237H83.4531V48.6822L91.067 38.4838H84.0119V35.7944Z" fill="black"></path><path d="M110.591 35.7942V50.3235H107.098V48.4026H107.028C106.574 49.0662 105.91 49.5901 105.177 49.9393C104.374 50.3235 103.501 50.4981 102.592 50.4981C101.859 50.5331 101.16 50.4632 100.497 50.1838C99.8333 49.9393 99.2046 49.5551 98.7156 49.0312C97.8076 48.0882 97.3535 46.5864 97.3535 44.5607V35.7593H100.916V44.2114C100.846 45.1894 101.091 46.1673 101.649 46.9706C101.929 47.2849 102.278 47.5294 102.662 47.704C103.046 47.8787 103.466 47.9136 103.885 47.9136C104.339 47.9485 104.758 47.8437 105.177 47.6691C105.596 47.4945 105.945 47.2151 106.225 46.9007C106.853 46.1324 107.168 45.1894 107.133 44.2464V35.8291H110.591V35.7942Z" fill="black"></path><path d="M121.069 35.55C121.313 35.55 121.558 35.55 121.802 35.6199C121.977 35.6548 122.186 35.6897 122.361 35.7596V39.2173C122.116 39.0427 121.837 38.9379 121.558 38.8331C121.138 38.6934 120.719 38.6585 120.3 38.6585C119.881 38.6585 119.462 38.7633 119.113 38.9379C118.729 39.1125 118.414 39.3919 118.17 39.7063C117.506 40.6493 117.192 41.8018 117.297 42.9893V50.3238H113.839V35.7945H117.331V38.0647H117.401C117.681 37.3313 118.17 36.6677 118.833 36.2136C119.427 35.7596 120.23 35.55 121.069 35.55Z" fill="black"></path><path d="M134.864 46.6564V49.4855C134.166 49.9046 133.397 50.184 132.594 50.3586C131.616 50.5682 130.638 50.7079 129.625 50.7079C128.647 50.7777 127.704 50.6031 126.796 50.2888C125.888 49.9395 125.085 49.4156 124.386 48.752C123.129 47.4597 122.5 45.6087 122.5 43.2686C122.431 41.2429 123.129 39.2521 124.491 37.7153C125.12 37.0168 125.888 36.458 126.761 36.0738C127.635 35.6896 128.578 35.515 129.555 35.5499C130.429 35.515 131.302 35.6547 132.14 35.969C132.943 36.2834 133.712 36.7723 134.305 37.401C135.423 38.6234 136.017 40.3348 136.017 42.5002V44.1767H125.923C126.063 45.6436 126.552 46.6564 127.355 47.2153C128.263 47.809 129.346 48.1233 130.464 48.0884C131.267 48.0884 132.07 47.9836 132.839 47.7042C133.572 47.4248 134.236 47.0756 134.864 46.6564ZM132.629 41.5921C132.699 40.6491 132.419 39.7411 131.826 39.0076C131.546 38.6933 131.197 38.4837 130.813 38.3091C130.429 38.1694 130.01 38.0995 129.59 38.0995C128.752 38.0995 127.949 38.4139 127.355 38.9727C126.657 39.6712 126.168 40.5793 126.028 41.5572H132.629V41.5921Z" fill="black"></path><path d="M86.2473 2.19536V22.4526H82.6848V6.56113H82.6149L76.2234 22.4526H73.8485L67.3173 6.56113H67.2823V22.4526H63.9644V2.19536H69.0985L75.001 17.1787H75.1058L81.3227 2.16043L86.2473 2.19536ZM89.2509 3.73211C89.2509 3.4527 89.2859 3.20821 89.3906 2.96373C89.4954 2.71925 89.67 2.50969 89.8447 2.33506C90.2638 1.95087 90.7877 1.74131 91.3465 1.74131C91.9053 1.74131 92.4292 1.95087 92.8483 2.33506C93.023 2.50969 93.1976 2.71925 93.3024 2.96373C93.4071 3.20821 93.4421 3.4527 93.4421 3.73211C93.4421 3.9766 93.4071 4.256 93.3024 4.50049C93.1976 4.74497 93.023 4.95453 92.8483 5.12916C92.4292 5.51335 91.9053 5.68798 91.3465 5.68798C91.0671 5.68798 90.7877 5.65305 90.5432 5.54827C90.2987 5.44349 90.0542 5.30379 89.8447 5.12916C89.6351 4.95453 89.4954 4.74497 89.3906 4.50049C89.2859 4.256 89.2509 4.01152 89.2509 3.73211ZM93.0579 7.92326V22.4526H89.6002V7.92326H93.0579ZM103.606 19.9728C104.199 19.9728 104.758 19.8331 105.317 19.6235C105.946 19.3791 106.504 19.0647 107.028 18.6805V21.8937C106.435 22.2081 105.806 22.4526 105.142 22.5923C104.374 22.7669 103.606 22.8367 102.837 22.8367C101.859 22.8717 100.881 22.732 99.9733 22.3827C99.0652 22.0334 98.227 21.5096 97.5284 20.811C96.8299 20.1474 96.306 19.3092 95.9568 18.436C95.6075 17.528 95.4329 16.585 95.4678 15.607C95.3979 13.5114 96.1314 11.4159 97.5634 9.8442C98.9604 8.34237 100.916 7.57399 103.466 7.57399C104.129 7.57399 104.793 7.64385 105.422 7.81848C105.981 7.95818 106.504 8.13281 106.993 8.37729V11.6604C106.504 11.2762 105.946 10.9968 105.352 10.7523C104.793 10.5427 104.234 10.4379 103.641 10.4379C103.012 10.403 102.418 10.5078 101.824 10.7523C101.266 10.9968 100.742 11.346 100.323 11.7651C99.4494 12.7431 98.9953 14.0004 99.0652 15.3276C99.0303 15.9563 99.1001 16.585 99.3097 17.1787C99.5192 17.7724 99.8336 18.2963 100.253 18.7853C100.707 19.2044 101.196 19.5188 101.789 19.7283C102.418 19.9379 103.012 20.0077 103.606 19.9728ZM116.912 7.67877C117.157 7.67877 117.401 7.67877 117.646 7.74863C117.821 7.78355 118.03 7.81848 118.205 7.88833V11.346C117.96 11.1714 117.681 11.0666 117.401 10.9618C116.982 10.8221 116.563 10.7872 116.144 10.7872C115.725 10.7872 115.306 10.892 114.957 11.0666C114.572 11.2412 114.258 11.5206 114.014 11.835C113.35 12.8129 113.036 13.9655 113.14 15.1181V22.4526H109.648V7.92326H113.106V10.2284H113.175C113.455 9.49493 113.944 8.83133 114.607 8.37729C115.271 7.92325 116.074 7.67877 116.912 7.67877ZM118.379 15.3975C118.31 14.3497 118.484 13.3368 118.833 12.324C119.183 11.346 119.742 10.4379 120.44 9.66957C121.802 8.27252 123.723 7.57399 126.168 7.57399C127.181 7.50414 128.159 7.64385 129.102 7.99311C130.045 8.34237 130.883 8.86626 131.581 9.56479C132.944 11.0666 133.642 13.0225 133.537 15.0482C133.572 16.0611 133.433 17.1088 133.083 18.0519C132.734 19.0298 132.175 19.9029 131.477 20.6713C130.743 21.3698 129.87 21.9287 128.892 22.3128C127.914 22.6621 126.901 22.8367 125.854 22.7669C124.841 22.8018 123.863 22.6621 122.92 22.3128C121.977 21.9636 121.139 21.4397 120.405 20.7761C119.707 20.0776 119.183 19.2393 118.833 18.2963C118.519 17.3883 118.344 16.4103 118.379 15.3975ZM122.012 15.2927C121.907 16.55 122.291 17.7724 123.059 18.7853C123.444 19.2044 123.898 19.5188 124.422 19.7283C124.946 19.9379 125.504 20.0427 126.063 20.0077C126.622 20.0427 127.146 19.9379 127.635 19.7283C128.124 19.5188 128.578 19.2044 128.927 18.7853C129.661 17.7375 130.01 16.4802 129.905 15.2228C130.01 13.9655 129.626 12.7081 128.892 11.6953C128.543 11.3111 128.089 10.9968 127.565 10.7872C127.076 10.5776 126.517 10.5078 125.993 10.5427C125.434 10.5078 124.876 10.6126 124.352 10.8221C123.828 11.0317 123.374 11.381 123.025 11.8001C122.291 12.778 121.942 14.0353 122.012 15.2927ZM138.706 11.7302C138.706 11.9398 138.741 12.1493 138.811 12.3589C138.881 12.5684 139.021 12.7431 139.195 12.8828C139.824 13.3368 140.523 13.6861 141.291 13.9306C142.409 14.3147 143.421 14.9434 144.225 15.7817C144.784 16.4802 145.098 17.3533 145.063 18.2614C145.098 18.8901 144.958 19.5188 144.679 20.1125C144.399 20.6713 143.98 21.1952 143.491 21.5794C142.234 22.4526 140.697 22.9066 139.16 22.8367C138.462 22.8367 137.798 22.7669 137.135 22.6272C136.471 22.5224 135.842 22.3129 135.249 22.0684V18.7155C135.877 19.1346 136.576 19.4838 137.274 19.7632C137.903 20.0077 138.567 20.1474 139.265 20.1474C139.859 20.1824 140.453 20.0776 141.012 19.8331C141.186 19.7283 141.361 19.5537 141.466 19.379C141.57 19.2044 141.605 18.9599 141.57 18.7504C141.57 18.5059 141.535 18.2963 141.431 18.0868C141.326 17.8772 141.186 17.7026 141.012 17.5629C140.348 17.0739 139.58 16.7247 138.811 16.4452C137.763 16.0611 136.855 15.4673 136.087 14.664C135.528 13.9306 135.249 13.0574 135.284 12.1493C135.284 11.5207 135.423 10.9269 135.703 10.3332C135.982 9.77434 136.401 9.28537 136.89 8.90119C138.078 8.02803 139.51 7.57399 141.012 7.64385C141.605 7.64385 142.164 7.7137 142.758 7.81848C143.317 7.92326 143.841 8.06296 144.364 8.23759V11.4857C143.876 11.1714 143.317 10.892 142.758 10.7174C142.164 10.5078 141.57 10.403 140.942 10.403C140.383 10.3681 139.859 10.5078 139.405 10.7872C139.23 10.892 139.091 11.0666 138.986 11.2412C138.741 11.346 138.706 11.5556 138.706 11.7302ZM146.53 15.3975C146.46 14.3497 146.635 13.3368 146.984 12.324C147.333 11.346 147.892 10.4379 148.591 9.66957C149.953 8.27252 151.874 7.57399 154.318 7.57399C155.331 7.50414 156.309 7.64385 157.252 7.99311C158.195 8.34237 159.033 8.86626 159.732 9.56479C161.094 11.0666 161.793 13.0225 161.688 15.0482C161.758 16.0611 161.583 17.1088 161.234 18.0519C160.885 19.0298 160.326 19.9029 159.627 20.6713C158.894 21.3698 158.021 21.9287 157.043 22.3128C156.065 22.6621 155.052 22.8367 154.004 22.7669C152.991 22.8018 152.013 22.6621 151.07 22.3128C150.127 21.9636 149.289 21.4397 148.556 20.7761C147.857 20.0776 147.333 19.2393 146.984 18.2963C146.635 17.3883 146.495 16.4103 146.53 15.3975ZM150.127 15.2927C150.057 16.55 150.407 17.7724 151.175 18.7853C151.559 19.2044 152.013 19.5188 152.537 19.7283C153.061 19.9379 153.62 20.0427 154.179 20.0077C154.738 20.0427 155.261 19.9379 155.75 19.7283C156.239 19.5188 156.693 19.2044 157.043 18.7853C157.776 17.7375 158.125 16.4802 158.021 15.2228C158.125 13.9655 157.741 12.7081 157.008 11.6953C156.658 11.3111 156.204 10.9968 155.715 10.7872C155.227 10.5776 154.668 10.5078 154.144 10.5427C153.585 10.5078 153.026 10.6126 152.502 10.8221C151.978 11.0317 151.524 11.381 151.175 11.8001C150.442 12.778 150.057 14.0353 150.127 15.2927ZM173.214 10.7174H168.044V22.4526H164.517V10.7174H162.072V7.92326H164.517V5.93246C164.482 5.23393 164.622 4.53541 164.866 3.90674C165.111 3.24314 165.53 2.68432 166.019 2.19536C166.543 1.70639 167.136 1.3222 167.8 1.07772C168.464 0.833234 169.162 0.693529 169.896 0.728455C170.28 0.728455 170.629 0.763381 171.013 0.798307C171.293 0.833233 171.607 0.903085 171.886 0.972938V3.94167C171.677 3.83689 171.502 3.76704 171.293 3.69718C170.978 3.5924 170.629 3.55748 170.315 3.55748C170 3.52255 169.686 3.5924 169.407 3.69718C169.127 3.80196 168.848 3.97659 168.638 4.22108C168.184 4.7799 167.975 5.51335 168.044 6.21187V7.95818H173.214V4.67512L176.706 3.62733V7.92326H180.199V10.7174H176.671V17.528C176.601 18.1916 176.776 18.8552 177.16 19.414C177.37 19.6235 177.614 19.7632 177.859 19.868C178.138 19.9728 178.418 20.0077 178.697 19.9728C178.941 19.9728 179.186 19.9029 179.43 19.8331C179.675 19.7632 179.954 19.6585 180.164 19.4838V22.3128C179.815 22.4875 179.43 22.5923 179.046 22.6621C178.557 22.7669 178.033 22.8367 177.544 22.8367C176.951 22.8717 176.357 22.8018 175.763 22.5923C175.204 22.3827 174.68 22.0684 174.226 21.6842C173.423 20.7062 173.039 19.4838 173.144 18.2265L173.214 10.7174Z" fill="black"></path><path d="M23.6942 2.19531H0.468262V25.072H23.6942V2.19531Z" fill="#F25022"></path><path d="M49.3299 2.19531H26.104V25.072H49.3299V2.19531Z" fill="#7FBA00"></path><path d="M23.6942 27.447H0.468262V50.3237H23.6942V27.447Z" fill="#00A4EF"></path><path d="M49.3299 27.447H26.104V50.3237H49.3299V27.447Z" fill="#FFB900"></path></svg> 