<?xml version="1.0" encoding="UTF-8"?> <svg xmlns="http://www.w3.org/2000/svg" width="225" height="55" viewBox="0 0 225 55" fill="none"><g clip-path="url(#clip0_3373_4093)"><path d="M46.0289 41.9179L34.8584 35.4648C33.2891 34.5613 31.2823 35.0987 30.374 36.668C30.0221 37.2862 29.8842 37.9662 29.9508 38.6272V51.2386C29.9508 53.0409 31.4155 54.5056 33.2225 54.5056C35.0248 54.5056 36.4895 53.0409 36.4895 51.2386V43.9866L42.7477 47.6007C44.317 48.509 46.3285 47.9669 47.232 46.3976C48.1403 44.8283 47.603 42.8215 46.0289 41.9179Z" fill="#29B5E8"></path><path d="M18.2479 28.0893C18.2669 26.9242 17.6534 25.8399 16.6453 25.255L5.47476 18.8067C4.98971 18.5261 4.43332 18.3787 3.87694 18.3787C2.73088 18.3787 1.66566 18.9921 1.09501 19.9812C0.210497 21.5125 0.738351 23.4765 2.2696 24.361L8.70846 28.075L2.2696 31.7937C1.52775 32.2217 0.995144 32.9113 0.776394 33.7387C0.552889 34.5662 0.667019 35.4316 1.09501 36.1735C1.66566 37.1626 2.73088 37.7761 3.87218 37.7761C4.43332 37.7761 4.98971 37.6287 5.47476 37.3481L16.6453 30.8997C17.6439 30.3196 18.2574 29.2448 18.2479 28.0893Z" fill="#29B5E8"></path><path d="M8.00942 14.2366L19.1799 20.685C20.4829 21.4411 22.0903 21.1938 23.1174 20.1904C23.7689 19.5912 24.1731 18.7353 24.1731 17.7842V4.8589C24.1731 3.05183 22.7085 1.58716 20.9062 1.58716C19.0991 1.58716 17.6344 3.05183 17.6344 4.8589V12.2156L11.2907 8.55387C9.72137 7.64558 7.71458 8.18295 6.80629 9.75224C5.89801 11.3215 6.44013 13.3283 8.00942 14.2366Z" fill="#29B5E8"></path><path d="M33.1278 28.6122C33.1278 28.8595 32.9851 29.2019 32.8092 29.3826L28.3819 33.8099C28.2059 33.9858 27.8588 34.1285 27.6115 34.1285H26.4844C26.2372 34.1285 25.89 33.9858 25.7141 33.8099L21.282 29.3826C21.106 29.2019 20.9634 28.8595 20.9634 28.6122V27.4852C20.9634 27.2331 21.106 26.8907 21.282 26.7148L25.7141 22.2827C25.89 22.1068 26.2372 21.9641 26.4844 21.9641H27.6115C27.8588 21.9641 28.2059 22.1068 28.3819 22.2827L32.8092 26.7148C32.9851 26.8907 33.1278 27.2331 33.1278 27.4852V28.6122ZM29.176 28.0701V28.0225C29.176 27.8418 29.0714 27.5898 28.943 27.4566L27.6353 26.1536C27.5069 26.0205 27.2548 25.9159 27.0694 25.9159H27.0218C26.8411 25.9159 26.5891 26.0205 26.4559 26.1536L25.1529 27.4566C25.0245 27.585 24.9199 27.8371 24.9199 28.0225V28.0701C24.9199 28.2556 25.0245 28.5076 25.1529 28.636L26.4559 29.9437C26.5891 30.0721 26.8411 30.1767 27.0218 30.1767H27.0694C27.2548 30.1767 27.5069 30.0721 27.6353 29.9437L28.943 28.636C29.0714 28.5076 29.176 28.2556 29.176 28.0701Z" fill="#29B5E8"></path><path d="M34.8586 20.685L46.0291 14.2366C47.5984 13.3331 48.1405 11.3215 47.2322 9.75224C46.3239 8.18295 44.3171 7.64558 42.7478 8.55387L36.4897 12.168V4.8589C36.4897 3.05183 35.025 1.58716 33.2227 1.58716C31.4156 1.58716 29.9509 3.05183 29.9509 4.8589V17.5274C29.8891 18.1836 30.0175 18.8684 30.3742 19.4866C31.2825 21.0559 33.2893 21.5933 34.8586 20.685Z" fill="#29B5E8"></path><path d="M21.4197 35.0845C20.6779 34.9418 19.8837 35.0607 19.1799 35.4649L8.00942 41.9181C6.44013 42.8216 5.89801 44.8284 6.80629 46.3977C7.71458 47.9717 9.72137 48.5091 11.2907 47.6008L17.6344 43.9391V51.2387C17.6344 53.041 19.0991 54.5057 20.9062 54.5057C22.7085 54.5057 24.1731 53.041 24.1731 51.2387V38.3134C24.1731 36.6823 22.9795 35.3318 21.4197 35.0845Z" fill="#29B5E8"></path><path d="M53.0103 19.9431C52.1068 18.369 50.0952 17.8317 48.5259 18.7399L37.3554 25.1883C36.2855 25.8065 35.6958 26.9383 35.7148 28.0891C35.7053 29.2352 36.295 30.3527 37.3554 30.9614L48.5259 37.4145C50.0952 38.3181 52.102 37.7807 53.0103 36.2114C53.9186 34.6421 53.3765 32.6353 51.8072 31.727L45.4825 28.0749L51.8072 24.4227C53.3812 23.5192 53.9186 21.5124 53.0103 19.9431Z" fill="#29B5E8"></path><path d="M224.662 27.3188V27.3236V27.4424C224.662 28.0511 224.153 28.5029 223.526 28.5029H207.833C207.861 28.8738 207.909 29.2352 207.985 29.5919C208.712 32.992 211.623 35.5219 215.08 35.5505C215.089 35.5505 215.265 35.5505 215.536 35.5505C215.579 35.5505 215.622 35.5505 215.665 35.5505H215.993C216.064 35.5505 216.136 35.5505 216.212 35.5457C216.278 35.5457 216.345 35.5409 216.411 35.5362C216.416 35.5362 216.421 35.5362 216.426 35.5314C217.572 35.4411 218.727 34.9798 219.759 34.238C219.759 34.238 219.759 34.238 219.764 34.238C219.816 34.1999 219.873 34.1571 219.926 34.1143C219.935 34.1096 219.945 34.1 219.959 34.0905C220.002 34.0572 220.049 34.0192 220.097 33.9812C220.116 33.9669 220.13 33.9526 220.149 33.9384C220.187 33.9098 220.225 33.8765 220.263 33.8433C220.287 33.8242 220.316 33.8005 220.339 33.7814C220.368 33.7529 220.397 33.7244 220.43 33.7006C220.458 33.6721 220.492 33.6435 220.52 33.615C220.544 33.596 220.568 33.5722 220.591 33.5484C220.63 33.5151 220.663 33.4818 220.701 33.4486C220.72 33.4295 220.739 33.4058 220.758 33.3867C220.796 33.3487 220.834 33.3106 220.872 33.2726C220.891 33.2536 220.905 33.2393 220.924 33.2203C220.962 33.1775 221 33.1347 221.038 33.0919C221.058 33.0776 221.072 33.0586 221.086 33.0396C221.129 32.9968 221.167 32.954 221.205 32.9112C221.219 32.8922 221.238 32.8731 221.252 32.8541C221.291 32.8066 221.324 32.7638 221.362 32.721C221.381 32.6972 221.4 32.6734 221.419 32.6496C221.452 32.6068 221.486 32.5688 221.514 32.5308C221.543 32.4927 221.566 32.4594 221.59 32.4261C221.614 32.3928 221.638 32.3643 221.661 32.331C221.699 32.2787 221.738 32.2264 221.771 32.1741C221.785 32.1551 221.795 32.1408 221.804 32.1265C221.899 31.9886 221.99 31.846 222.08 31.6986C222.08 31.6986 222.08 31.6938 222.085 31.689C222.104 31.6558 222.127 31.6272 222.151 31.5939C222.161 31.5797 222.17 31.5654 222.185 31.5559C222.199 31.5321 222.218 31.5178 222.232 31.4988C222.246 31.4846 222.261 31.4703 222.275 31.456C222.294 31.4418 222.308 31.4275 222.327 31.4132C222.341 31.399 222.356 31.3847 222.375 31.3752C222.399 31.3562 222.427 31.3371 222.456 31.3229C222.475 31.3086 222.498 31.2943 222.517 31.2848C222.541 31.2753 222.56 31.2658 222.579 31.2563C222.598 31.2468 222.617 31.242 222.632 31.2325C222.66 31.223 222.684 31.2183 222.712 31.2087C222.727 31.204 222.736 31.1992 222.75 31.1945C222.841 31.1755 222.936 31.1612 223.026 31.1612C223.126 31.1612 223.231 31.1755 223.326 31.204C223.331 31.204 223.331 31.204 223.335 31.204C223.373 31.2183 223.416 31.2278 223.454 31.2468C223.464 31.2515 223.473 31.2515 223.483 31.2563C223.526 31.2753 223.564 31.2943 223.602 31.3181L223.621 31.3276C224.144 31.7081 224.305 32.3738 223.987 32.9207L223.982 32.9255C223.944 32.9873 223.906 33.0491 223.868 33.1062C223.858 33.1204 223.849 33.1347 223.839 33.149C222.727 34.8419 221.214 36.1924 219.526 37.0009C219.488 37.0151 219.455 37.0342 219.417 37.0532C219.412 37.0532 219.403 37.0579 219.398 37.0579C218.618 37.4193 217.781 37.6714 216.887 37.776C216.868 37.776 216.849 37.7808 216.83 37.7808C216.754 37.7903 216.678 37.7998 216.602 37.8045C216.559 37.8045 216.516 37.8093 216.469 37.814C216.416 37.814 216.359 37.8188 216.307 37.8236C216.202 37.8236 216.098 37.8283 215.993 37.8283C215.979 37.8283 215.584 37.8283 215.318 37.8283C215.166 37.8283 215.08 37.8283 215.07 37.8283C209.792 37.7903 205.541 33.3867 205.541 27.9941C205.541 22.5111 209.82 18.0837 215.142 18.0837C215.299 18.0837 215.456 18.0885 215.613 18.0933C217.467 18.1884 219.179 18.8208 220.601 19.8575C220.606 19.8623 220.611 19.867 220.615 19.867C220.696 19.9241 220.772 19.9859 220.848 20.043C220.886 20.0763 220.929 20.1096 220.972 20.1428C221.01 20.1714 221.048 20.2047 221.086 20.2332C223.088 21.9024 224.439 24.4085 224.662 27.3093V27.3188ZM207.985 26.2631H222.189C221.486 22.8392 218.542 20.3616 215.142 20.3616C211.68 20.3616 208.76 22.7916 207.985 26.2631Z" fill="#29B5E8"></path><path d="M184.541 18.4166C184.717 18.5926 184.836 18.8303 184.864 19.1062C184.864 19.1442 184.869 19.1822 184.869 19.2203V36.687C184.869 37.31 184.346 37.8283 183.728 37.8283C183.109 37.8283 182.591 37.31 182.591 36.687V34.3664C182.158 34.8895 181.683 35.365 181.165 35.7787C181.15 35.793 181.136 35.8025 181.122 35.8168C181.074 35.8548 181.022 35.8928 180.974 35.9261C179.405 37.134 177.498 37.8283 175.506 37.8283C172.296 37.8283 169.471 36.1211 167.787 33.5342C167.773 33.5151 167.754 33.4914 167.74 33.4723C167.692 33.3915 167.645 33.3106 167.592 33.225C167.559 33.1727 167.531 33.1204 167.497 33.0681C167.464 33.0158 167.436 32.9587 167.407 32.9017C167.359 32.8208 167.312 32.7352 167.269 32.6544C167.255 32.6259 167.245 32.5973 167.231 32.5688C166.608 31.3324 166.223 29.939 166.156 28.4601C166.147 28.2937 166.142 28.1272 166.142 27.956C166.142 27.7848 166.147 27.6184 166.156 27.4519C166.223 25.973 166.608 24.5797 167.231 23.3385C167.245 23.3147 167.255 23.2862 167.269 23.2577C167.312 23.1768 167.359 23.0912 167.407 23.0104C167.436 22.9533 167.464 22.8962 167.497 22.8439C167.526 22.7916 167.559 22.7393 167.592 22.687C167.64 22.6062 167.692 22.5206 167.74 22.4397C167.754 22.4207 167.773 22.3969 167.787 22.3779C169.471 19.7909 172.296 18.0837 175.506 18.0837C177.674 18.0837 179.724 18.8779 181.355 20.2617C181.802 20.6374 182.215 21.0511 182.591 21.5077V19.2203C182.591 19.1822 182.591 19.1442 182.596 19.1062C182.624 18.8303 182.743 18.5926 182.919 18.4166C182.919 18.4166 182.919 18.4166 182.919 18.4119C182.938 18.3928 182.962 18.3786 182.981 18.3596C182.986 18.3548 182.995 18.3453 183 18.3405C183.014 18.3263 183.033 18.3168 183.048 18.3072C183.062 18.2977 183.076 18.2835 183.09 18.274C183.1 18.2692 183.109 18.2644 183.119 18.2549C183.143 18.2454 183.162 18.2312 183.186 18.2169C183.19 18.2169 183.195 18.2121 183.2 18.2121C183.228 18.1979 183.257 18.1836 183.285 18.1693C183.285 18.1693 183.285 18.1693 183.29 18.1693C183.357 18.1408 183.428 18.1218 183.499 18.1075C183.504 18.1075 183.514 18.1028 183.518 18.1028C183.547 18.098 183.58 18.0933 183.614 18.0885C183.652 18.0885 183.69 18.0837 183.728 18.0837C183.77 18.0837 183.809 18.0885 183.847 18.0885C183.88 18.0933 183.908 18.098 183.942 18.1028C183.946 18.1028 183.951 18.1075 183.961 18.1075C184.032 18.1218 184.103 18.1408 184.17 18.1693H184.175C184.203 18.1836 184.232 18.1979 184.256 18.2121C184.265 18.2121 184.27 18.2169 184.275 18.2169C184.294 18.2312 184.317 18.2454 184.336 18.2549C184.346 18.2644 184.36 18.2692 184.37 18.274C184.384 18.2835 184.398 18.2977 184.412 18.3072C184.427 18.3168 184.441 18.3263 184.455 18.3405C184.465 18.3453 184.47 18.3548 184.479 18.3596C184.498 18.3786 184.522 18.3928 184.536 18.4119C184.541 18.4166 184.541 18.4166 184.541 18.4166ZM175.506 35.5505C179.41 35.5505 182.591 32.1456 182.591 27.956C182.591 23.7475 179.41 20.3236 175.506 20.3236C171.63 20.3236 168.42 23.7427 168.42 27.956C168.42 28.0892 168.425 28.2176 168.429 28.346C168.429 28.403 168.439 28.4553 168.439 28.5077C168.444 28.5837 168.448 28.6598 168.458 28.7312C168.463 28.793 168.472 28.85 168.477 28.9071C168.487 28.9737 168.491 29.045 168.501 29.1116C168.51 29.1639 168.52 29.2115 168.525 29.259C168.539 29.3351 168.548 29.4112 168.563 29.4873C168.572 29.5253 168.582 29.5586 168.586 29.5919C168.605 29.6822 168.624 29.7678 168.643 29.8582C168.648 29.8772 168.653 29.8962 168.662 29.9153C169.471 33.168 172.248 35.5505 175.506 35.5505Z" fill="#29B5E8"></path><path d="M155.956 9.84741H155.647C155.609 9.84741 155.566 9.84741 155.528 9.85217C155.485 9.84741 155.447 9.84741 155.404 9.84741C155.295 9.84741 155.185 9.84741 155.076 9.85217C155.057 9.85217 155.033 9.85692 155.014 9.85692C154.929 9.85692 154.843 9.86168 154.757 9.87119C154.743 9.87119 154.724 9.87119 154.71 9.87119C154.62 9.8807 154.534 9.88546 154.448 9.89497C154.439 9.89972 154.429 9.89972 154.42 9.89972C154.325 9.91399 154.234 9.9235 154.149 9.93777C154.144 9.93777 154.139 9.93777 154.139 9.93777C153.564 10.0281 153.046 10.1898 152.584 10.4181C152.584 10.4228 152.579 10.4228 152.575 10.4228C152.508 10.4609 152.437 10.4989 152.37 10.537C152.356 10.5417 152.346 10.5512 152.332 10.5607C152.275 10.594 152.218 10.6273 152.161 10.6653C152.137 10.6796 152.118 10.6986 152.099 10.7129C152.052 10.7414 152.009 10.7747 151.961 10.808C151.928 10.8365 151.895 10.8651 151.861 10.8889C151.833 10.9126 151.804 10.9364 151.776 10.9602C151.724 11.0077 151.676 11.0505 151.628 11.0981C151.619 11.1076 151.609 11.1171 151.6 11.1266C151.543 11.1884 151.486 11.2455 151.429 11.3073C151.419 11.3216 151.41 11.3359 151.4 11.3454C151.353 11.3977 151.305 11.45 151.262 11.5023C151.248 11.5261 151.229 11.5499 151.215 11.5736C151.177 11.6212 151.143 11.664 151.11 11.7115C151.101 11.7306 151.091 11.7448 151.077 11.7591C151.039 11.8162 151.001 11.8732 150.967 11.9303C150.963 11.9398 150.958 11.9446 150.953 11.9541C150.644 12.4629 150.425 13.0621 150.287 13.7849C150.287 13.7944 150.287 13.8087 150.283 13.8182C150.264 13.9086 150.249 14.0037 150.235 14.0988C150.23 14.1273 150.226 14.1558 150.226 14.1844C150.211 14.2652 150.202 14.3461 150.192 14.4317C150.187 14.4792 150.183 14.5268 150.178 14.5791C150.168 14.6456 150.159 14.7075 150.154 14.7788C150.149 14.8501 150.145 14.9215 150.14 14.9975C150.135 15.0451 150.135 15.0927 150.13 15.145C150.126 15.2448 150.121 15.3495 150.116 15.4541C150.116 15.4826 150.111 15.5016 150.111 15.5254C150.107 15.6586 150.107 15.7965 150.107 15.9296V17.808H147.738C147.591 17.8033 147.444 17.8318 147.31 17.8793C146.882 18.0363 146.578 18.4405 146.578 18.9113C146.578 19.3535 146.797 19.7292 147.139 19.948C147.31 20.0573 147.51 20.1239 147.729 20.1334H147.738V20.1382H150.107V36.7251C150.102 36.7489 150.107 36.7679 150.107 36.7917C150.107 36.806 150.107 36.8202 150.107 36.8345C150.121 37.1008 150.23 37.3433 150.406 37.5288L150.411 37.5336C150.435 37.5573 150.463 37.5811 150.487 37.6049C150.492 37.6096 150.497 37.6096 150.501 37.6144C150.52 37.6334 150.544 37.6477 150.563 37.662C150.573 37.6715 150.587 37.681 150.596 37.6857C150.606 37.6952 150.615 37.7 150.63 37.7048C150.815 37.8236 151.034 37.8902 151.267 37.8902C151.305 37.8902 151.343 37.8855 151.376 37.8807C151.6 37.8617 151.804 37.7666 151.971 37.6287L151.976 37.6239C151.999 37.6049 152.018 37.5859 152.037 37.5621C152.042 37.5573 152.052 37.5526 152.056 37.5478C152.075 37.5288 152.09 37.5098 152.104 37.4955C152.285 37.2768 152.385 37.0057 152.37 36.7251V20.1382H154.919V20.1334H154.929C155.604 20.1001 156.099 19.5723 156.079 18.916C156.079 18.9113 156.079 18.9113 156.079 18.9065C156.084 18.8827 156.079 18.859 156.079 18.8352C156.079 18.8257 156.079 18.8162 156.079 18.8114C156.06 18.5594 155.951 18.3311 155.78 18.1552C155.78 18.1552 155.78 18.1552 155.78 18.1504C155.775 18.1504 155.775 18.1504 155.775 18.1504C155.751 18.1266 155.732 18.1076 155.709 18.0886C155.699 18.0791 155.69 18.0743 155.685 18.0648C155.666 18.0505 155.651 18.041 155.632 18.0268C155.618 18.0173 155.599 18.003 155.585 17.9935C155.575 17.9887 155.561 17.9792 155.552 17.9745C155.528 17.9602 155.504 17.9459 155.48 17.9364C155.476 17.9317 155.466 17.9269 155.461 17.9269C155.433 17.9126 155.404 17.8984 155.376 17.8889C155.371 17.8841 155.366 17.8841 155.357 17.8793C155.328 17.8698 155.3 17.8603 155.271 17.8508C155.262 17.8508 155.252 17.8461 155.243 17.8461C155.214 17.8413 155.19 17.8318 155.162 17.827C155.147 17.827 155.133 17.827 155.119 17.8223C155.1 17.8175 155.076 17.8175 155.052 17.8128C155.033 17.8128 155.014 17.8128 155 17.8128C154.986 17.8128 154.971 17.808 154.957 17.808C154.943 17.808 154.924 17.808 154.919 17.808H152.37V15.9344C152.37 15.9201 152.37 15.9058 152.37 15.8963C152.375 15.8012 152.375 15.7061 152.38 15.6158C152.38 15.592 152.38 15.5634 152.385 15.5397C152.385 15.4588 152.389 15.378 152.394 15.3019C152.394 15.2876 152.399 15.2686 152.399 15.2543C152.404 15.164 152.413 15.0736 152.423 14.988C152.513 14.0607 152.713 13.4758 152.922 13.1192C152.927 13.1096 152.927 13.1049 152.931 13.0954C152.946 13.0716 152.965 13.0478 152.979 13.024C152.988 13.005 153.003 12.986 153.017 12.967C153.022 12.9575 153.031 12.9384 153.041 12.9289C153.065 12.8956 153.088 12.8671 153.117 12.8386C153.416 12.5009 153.882 12.2965 154.558 12.2156C154.567 12.2156 154.572 12.2109 154.586 12.2109C154.624 12.2061 154.667 12.2014 154.705 12.2014C154.724 12.1966 154.748 12.1966 154.767 12.1918C154.805 12.1918 154.838 12.1871 154.876 12.1871C154.905 12.1871 154.929 12.1823 154.962 12.1823C154.995 12.1776 155.029 12.1776 155.062 12.1776C155.095 12.1776 155.128 12.1728 155.162 12.1728C155.195 12.1728 155.228 12.1728 155.262 12.1728C155.309 12.1728 155.357 12.1728 155.404 12.1728H155.409C155.447 12.1728 155.48 12.1681 155.518 12.1633C155.561 12.1681 155.604 12.1728 155.647 12.1728H155.956C156.593 12.1728 157.116 11.6497 157.116 11.0077C157.116 10.3658 156.593 9.84741 155.956 9.84741Z" fill="#29B5E8"></path><path d="M162.09 9.88075C162.09 9.88075 162.085 9.876 162.081 9.876C162.057 9.86649 162.038 9.85698 162.009 9.85222C162 9.84746 161.986 9.84271 161.971 9.83795C161.952 9.8332 161.933 9.82844 161.914 9.82369C161.895 9.81893 161.876 9.80942 161.862 9.80942C161.838 9.80467 161.819 9.79991 161.795 9.79991C161.776 9.79516 161.762 9.79516 161.743 9.7904C161.705 9.78564 161.662 9.78564 161.624 9.78564C161.006 9.78564 160.483 10.304 160.483 10.9222V36.6871C160.483 37.3101 161.006 37.8284 161.624 37.8284C161.662 37.8284 161.705 37.8284 161.743 37.8237C161.748 37.8237 161.757 37.8189 161.762 37.8189C161.795 37.8142 161.829 37.8094 161.862 37.8047C161.867 37.8047 161.876 37.7999 161.886 37.7999C161.914 37.7904 161.943 37.7856 161.971 37.7761C161.976 37.7761 161.981 37.7761 161.986 37.7714C162.423 37.6335 162.746 37.2625 162.794 36.806C162.799 36.768 162.804 36.7299 162.804 36.6871V10.9222C162.804 10.8842 162.799 10.8461 162.794 10.8081C162.751 10.3896 162.475 10.0424 162.09 9.88075Z" fill="#29B5E8"></path><path d="M74.7758 31.7651C74.7663 31.6986 74.7663 31.6367 74.7568 31.5749C74.752 31.5274 74.7473 31.4846 74.7425 31.4418C74.733 31.3894 74.7283 31.3419 74.7187 31.2896C74.7092 31.242 74.6997 31.1945 74.6902 31.1422C74.6855 31.1041 74.676 31.0613 74.6664 31.0233C74.6522 30.9662 74.6427 30.9139 74.6284 30.8568C74.6189 30.8283 74.6094 30.795 74.5999 30.7665C74.5856 30.7047 74.5666 30.6476 74.5428 30.5905C74.538 30.5668 74.5285 30.543 74.5238 30.524C74.5 30.4574 74.4762 30.3956 74.4477 30.329C74.4429 30.3195 74.4382 30.3052 74.4334 30.2909C74.4001 30.2244 74.3716 30.153 74.3383 30.0865C74.3336 30.0817 74.3336 30.0769 74.3288 30.0722C74.0577 29.5253 73.6726 29.0688 73.2018 28.6836C73.2018 28.6789 73.2018 28.6789 73.197 28.6789C73.1304 28.6265 73.0639 28.5695 72.9925 28.5172C72.9925 28.5172 72.9878 28.5124 72.983 28.5077C72.9783 28.5077 72.9735 28.5029 72.9687 28.4981C72.926 28.4696 72.8832 28.4363 72.8451 28.4078C72.2602 27.9941 71.6135 27.6659 70.6719 27.3045C70.6576 27.2998 70.6433 27.295 70.6291 27.2903C70.6148 27.2808 70.5958 27.276 70.5815 27.2665C70.0489 27.0668 69.4973 26.8765 68.9314 26.6911C68.9314 26.6911 68.9314 26.6911 68.9266 26.6911C68.9266 26.6911 68.9219 26.6911 68.9219 26.6863C68.9124 26.6863 68.9029 26.6816 68.8886 26.6768C68.8363 26.6578 68.7792 26.6388 68.7031 26.615C68.6651 26.6055 68.6366 26.596 68.608 26.5865C68.4178 26.5199 68.2228 26.4581 68.0279 26.3915C67.8899 26.3439 67.7425 26.2964 67.5666 26.2393C67.519 26.225 67.4049 26.187 67.3098 26.1585C67.305 26.1585 67.305 26.1537 67.3003 26.1537C67.2432 26.1347 67.1861 26.1157 67.1243 26.0966C66.6488 25.9445 66.2588 25.8113 65.926 25.6877C65.3838 25.488 64.8893 25.274 64.4851 25.0172C64.4755 25.0124 64.466 25.0077 64.4613 25.0029C63.9097 24.651 63.5292 24.2183 63.4389 23.6524L63.4341 23.6476C63.4294 23.6096 63.4246 23.5668 63.4246 23.5287C63.4198 23.5192 63.4198 23.5144 63.4198 23.5097C63.4151 23.4621 63.4151 23.4193 63.4151 23.3718C63.4151 23.3052 63.4198 23.2386 63.4246 23.1768C63.4246 23.1578 63.4246 23.1435 63.4294 23.1293C63.4341 23.0769 63.4389 23.0294 63.4436 22.9818C63.4484 22.9676 63.4484 22.9533 63.4531 22.939C63.4626 22.8867 63.4721 22.8392 63.4817 22.7869C63.4864 22.7821 63.4864 22.7726 63.4912 22.7631C63.5054 22.706 63.5197 22.6537 63.5387 22.6014C63.5387 22.5966 63.5387 22.5966 63.5387 22.5966C63.786 21.8596 64.3709 21.3127 65.0605 20.9275C65.108 20.9037 65.1556 20.8799 65.1984 20.8562C65.2459 20.8324 65.2887 20.8086 65.3315 20.7896C65.4029 20.7563 65.4742 20.723 65.5455 20.6945C65.5883 20.6755 65.6264 20.6564 65.6692 20.6422C65.7452 20.6136 65.8213 20.5851 65.8974 20.5566C65.9355 20.5423 65.9783 20.528 66.0211 20.5138C66.0972 20.49 66.1685 20.4662 66.2446 20.4472C66.2921 20.4329 66.3349 20.4187 66.3825 20.4091C66.4538 20.3901 66.5251 20.3759 66.5917 20.3568C66.6393 20.3473 66.6868 20.3378 66.7344 20.3283C66.8105 20.314 66.8818 20.2998 66.9484 20.2903C66.9912 20.2855 67.0292 20.2808 67.072 20.2712C67.1529 20.2617 67.2385 20.2522 67.324 20.2475C67.3431 20.2427 67.3621 20.2427 67.3859 20.238C67.4905 20.2332 67.5951 20.2284 67.695 20.2284C67.8139 20.2284 67.9327 20.2332 68.0469 20.238C68.0659 20.238 68.0849 20.238 68.0992 20.238C68.9409 20.2903 69.6209 20.4947 70.1821 20.7658C70.2249 20.7848 70.2677 20.8086 70.3105 20.8276C70.3342 20.8419 70.358 20.8562 70.3818 20.8657C70.4341 20.8942 70.4864 20.9227 70.5435 20.956C70.553 20.9608 70.5625 20.9655 70.572 20.9703C70.6291 21.0036 70.6861 21.0416 70.7432 21.0749C70.748 21.0797 70.7527 21.0797 70.7527 21.0797C70.8145 21.1177 70.8764 21.1605 70.9382 21.1986C70.9382 21.2033 70.9429 21.2033 70.9429 21.2081C71.0048 21.2461 71.0618 21.2841 71.1189 21.3269C71.1427 21.346 71.1617 21.3602 71.1855 21.3745C71.3186 21.4744 71.5279 21.6361 71.7181 21.793C71.7418 21.8072 71.7609 21.8215 71.7751 21.8358C71.9178 21.9547 72.051 22.0593 72.1794 22.1544C72.2031 22.1734 72.2221 22.1877 72.2364 22.1972C72.2412 22.2019 72.2459 22.2067 72.2507 22.2067C72.2649 22.2162 72.2792 22.2257 72.2935 22.2352C72.3268 22.259 72.3648 22.2828 72.3981 22.3066C72.4124 22.3161 72.4266 22.3208 72.4409 22.3303C72.4742 22.3494 72.5075 22.3684 72.5408 22.3874C72.555 22.3922 72.5645 22.3969 72.5788 22.4017C72.6168 22.4207 72.6501 22.435 72.6882 22.4492C72.6977 22.454 72.7024 22.454 72.712 22.4587C72.7548 22.473 72.7976 22.4873 72.8404 22.492C72.8404 22.492 72.8404 22.492 72.8451 22.4968C72.9402 22.5111 73.0306 22.5158 73.1257 22.492C73.1352 22.492 73.1447 22.4873 73.1542 22.4873C73.178 22.4825 73.2065 22.473 73.2303 22.4683C73.2398 22.4635 73.2446 22.4587 73.2541 22.454C73.2636 22.454 73.2731 22.4492 73.2826 22.4445C73.3207 22.4255 73.3587 22.4064 73.3967 22.3827C73.4063 22.3827 73.411 22.3779 73.4158 22.3731C73.4586 22.3446 73.4966 22.3161 73.5346 22.2828C73.5394 22.278 73.5394 22.278 73.5394 22.278C73.5727 22.2495 73.6012 22.2162 73.6298 22.1829C73.6488 22.1591 73.6678 22.1306 73.6821 22.1021C73.6868 22.0973 73.6916 22.0926 73.6916 22.0878C73.8913 21.7549 73.7772 21.3174 73.4253 20.8419C73.4205 20.8324 73.4158 20.8229 73.4062 20.8134C73.392 20.7943 73.3825 20.7801 73.3682 20.7611C72.5598 19.7149 70.7194 18.5688 69.0122 18.2026C69.0027 18.2026 68.9932 18.2026 68.9837 18.1979C68.9124 18.1836 68.8363 18.1693 68.7649 18.1551C68.7459 18.1551 68.7222 18.1503 68.7031 18.1456C68.6413 18.136 68.5795 18.1265 68.5177 18.1218C68.4939 18.117 68.4701 18.1123 68.4463 18.1123C68.3893 18.1075 68.3274 18.1028 68.2704 18.098C68.2466 18.0933 68.2228 18.0933 68.2038 18.0885C68.123 18.0885 68.0469 18.0837 67.9708 18.0837C67.8471 18.0837 67.7235 18.0837 67.6046 18.0885C67.538 18.0885 67.4715 18.0933 67.4001 18.098C67.3526 18.1028 67.2955 18.1028 67.248 18.1028C67.1529 18.1123 67.0625 18.117 66.9722 18.1265C66.9484 18.1265 66.9198 18.1265 66.8961 18.1313C66.7914 18.1408 66.6868 18.1503 66.587 18.1646C66.5727 18.1646 66.5632 18.1646 66.5537 18.1646C66.4443 18.1788 66.3397 18.1931 66.2351 18.2121C66.2303 18.2121 66.2208 18.2121 66.216 18.2121C66.1114 18.2264 66.0068 18.2454 65.9069 18.2644C65.9022 18.2644 65.8974 18.2692 65.8879 18.2692C65.6739 18.3072 65.4647 18.3548 65.2649 18.4071C65.2602 18.4071 65.2602 18.4119 65.2602 18.4119C65.1603 18.4356 65.0605 18.4642 64.9606 18.4927C64.8655 18.5212 64.7751 18.5545 64.6895 18.5831C64.68 18.5831 64.6753 18.5878 64.6658 18.5878C64.5802 18.6211 64.4946 18.6496 64.409 18.6829C64.3995 18.6877 64.3899 18.6924 64.3852 18.6924C64.2996 18.7257 64.2235 18.759 64.1427 18.7971C64.1332 18.8018 64.1189 18.8018 64.1094 18.8113C64.038 18.8399 63.962 18.8779 63.8954 18.9112C63.8764 18.9207 63.8621 18.9255 63.8478 18.935C63.7765 18.9683 63.7099 19.0015 63.6433 19.0396C63.6243 19.0491 63.6101 19.0586 63.591 19.0681C63.5292 19.1014 63.4674 19.1394 63.4056 19.1775C63.3865 19.187 63.3675 19.1965 63.3485 19.2108C63.2677 19.2583 63.1916 19.3106 63.1155 19.3582C63.0251 19.4248 62.9348 19.4866 62.8539 19.5532C62.8444 19.5532 62.8397 19.5579 62.8397 19.5627C62.4355 19.8623 62.0883 20.1809 61.803 20.5518C61.7935 20.5661 61.7792 20.5803 61.7697 20.5946C61.7364 20.6469 61.6984 20.6945 61.6651 20.742C61.6413 20.7801 61.6175 20.8181 61.5937 20.8562C61.5747 20.8847 61.5557 20.9132 61.5414 20.9418C61.5034 21.0036 61.4701 21.0654 61.4368 21.132C61.4321 21.1415 61.4273 21.1462 61.4226 21.1558C61.1658 21.6646 61.0183 22.2495 60.9613 22.9581C60.9613 22.9676 60.9613 22.9771 60.9565 22.9866C60.9518 23.1102 60.9423 23.2339 60.9375 23.367C60.9375 23.4669 60.9375 23.5668 60.9423 23.6666C60.9423 23.6809 60.9423 23.6952 60.9423 23.7094C60.9946 25.0695 61.6128 26.0919 62.7303 26.8861C62.7398 26.8908 62.7493 26.9003 62.7588 26.9051C62.8064 26.9384 62.8539 26.9716 62.9015 27.0049C62.9348 27.0287 62.9728 27.0477 63.0061 27.0715C63.0156 27.081 63.0299 27.0858 63.0394 27.0905C64.1427 27.7896 65.4932 28.189 66.6202 28.5077C67.1719 28.6693 67.6664 28.8072 67.8139 28.85C67.8471 28.8596 67.8804 28.8691 67.909 28.8833C68.5842 29.1068 69.1026 29.2875 69.5306 29.4587C69.5639 29.4683 69.5924 29.4825 69.6257 29.492C69.6352 29.4968 69.6495 29.5015 69.6637 29.5111C69.9062 29.6109 70.144 29.7155 70.3723 29.8297C70.5625 29.9248 70.7385 30.0246 70.9144 30.1293C71.3662 30.4098 71.7133 30.7142 71.9463 31.0471C71.9558 31.0566 71.9606 31.0661 71.9654 31.0756C71.9891 31.1041 72.0082 31.1327 72.0224 31.1659C72.0367 31.185 72.0462 31.1992 72.0557 31.2183C72.07 31.242 72.0842 31.2658 72.0937 31.2896C72.108 31.3134 72.1175 31.3419 72.1318 31.3657C72.1413 31.3847 72.1508 31.4037 72.1603 31.4227C72.1698 31.4513 72.1841 31.4798 72.1936 31.5131C72.1984 31.5274 72.2079 31.5464 72.2126 31.5654C72.2221 31.5987 72.2317 31.632 72.2412 31.6653C72.2459 31.6795 72.2507 31.6938 72.2554 31.7128C72.2649 31.7461 72.2745 31.7842 72.2792 31.8174C72.284 31.8317 72.2887 31.8507 72.2887 31.865C72.2935 31.903 72.2982 31.9411 72.303 31.9791C72.3077 31.9934 72.3077 32.0077 72.3077 32.0219C72.3125 32.079 72.3173 32.1313 72.3173 32.1884C72.3173 32.274 72.3125 32.3548 72.3077 32.4356C72.3077 32.4594 72.303 32.4832 72.303 32.507C72.2982 32.5688 72.2887 32.6306 72.2745 32.6924C72.2745 32.7115 72.2697 32.7305 72.2649 32.7495C72.2364 32.9159 72.1889 33.0729 72.127 33.2298C72.1223 33.2346 72.1223 33.2393 72.1223 33.2441C72.089 33.3154 72.0557 33.3915 72.0177 33.4581C72.0129 33.4676 72.0129 33.4723 72.0082 33.4771C71.9273 33.6293 71.8322 33.7767 71.7133 33.9146C71.6562 33.9859 71.5944 34.0525 71.5326 34.1191C71.5279 34.1191 71.5279 34.1191 71.5279 34.1238C71.3995 34.2522 71.2568 34.3711 71.1094 34.4805C71.1046 34.4852 71.0999 34.4852 71.0999 34.49C71.0285 34.5375 70.9572 34.5899 70.8859 34.6327C70.8764 34.6422 70.8668 34.6469 70.8573 34.6517C70.7337 34.7278 70.6005 34.8039 70.4674 34.8704C70.4198 34.8942 70.3723 34.918 70.32 34.9418C70.2677 34.9655 70.2106 34.9941 70.1535 35.0178C70.106 35.0369 70.0632 35.0559 70.0156 35.0749C69.8872 35.1225 69.7636 35.17 69.6352 35.2128C69.6162 35.2176 69.5971 35.2223 69.5781 35.2318C69.502 35.2556 69.426 35.2746 69.3499 35.2984C69.3308 35.3032 69.3071 35.3127 69.288 35.3174C69.036 35.384 68.7887 35.4363 68.5557 35.4744C68.551 35.4744 68.5462 35.4744 68.5414 35.4744C68.4226 35.4934 68.3084 35.5077 68.199 35.5219C68.1562 35.5267 68.1182 35.5314 68.0754 35.5314C68.0374 35.5362 67.9993 35.5362 67.9565 35.5409C67.8662 35.5457 67.7711 35.5505 67.6855 35.5505C67.5095 35.5505 67.3383 35.5457 67.1719 35.5362C67.1053 35.5362 67.0387 35.5314 66.9722 35.5267C66.8818 35.5172 66.7867 35.5124 66.7011 35.5029C66.6202 35.4981 66.5347 35.4886 66.4586 35.4791C66.3872 35.4696 66.3207 35.4601 66.2541 35.4506C66.1067 35.4268 65.9688 35.4078 65.8308 35.3793C65.769 35.365 65.7024 35.3555 65.6406 35.3412C65.5693 35.3222 65.498 35.3079 65.4266 35.2889C65.3458 35.2699 65.2697 35.2509 65.1936 35.2271C65.1413 35.2128 65.0842 35.1986 65.0367 35.1843C64.9083 35.1462 64.7799 35.1034 64.6562 35.0559C64.6277 35.0464 64.5992 35.0369 64.5707 35.0274C64.2948 34.9227 64.0238 34.8086 63.7575 34.6755C63.748 34.6707 63.7337 34.6612 63.7194 34.6564C63.5482 34.5708 63.2582 34.4092 62.9823 34.2522C62.9586 34.238 62.93 34.2237 62.9062 34.2094C62.7113 34.0953 62.5448 34.0002 62.3879 33.9241C62.3736 33.9146 62.3641 33.9098 62.3546 33.9051C62.3451 33.9003 62.3356 33.8956 62.3308 33.8956C62.288 33.8765 62.2548 33.8575 62.2167 33.8433C62.2024 33.8385 62.1929 33.8337 62.1834 33.829C62.0836 33.7909 61.9932 33.7624 61.9029 33.7529C61.8743 33.7481 61.8458 33.7481 61.8173 33.7481C61.8077 33.7434 61.7982 33.7434 61.7887 33.7434C61.608 33.7434 61.4511 33.8052 61.3037 33.9431C61.2704 33.9717 61.2418 34.0002 61.2133 34.0335C61.2086 34.043 61.1991 34.0525 61.1895 34.062C61.1705 34.0858 61.1563 34.1048 61.142 34.1238C61.1325 34.1381 61.123 34.1524 61.1182 34.1619C61.1039 34.1809 61.0897 34.1999 61.0802 34.2189C61.0707 34.2332 61.0659 34.2475 61.0611 34.2617C61.0516 34.2808 61.0421 34.2998 61.0326 34.3188C61.0279 34.3331 61.0231 34.3426 61.0183 34.3568C61.0088 34.3806 61.0041 34.3996 60.9993 34.4187C60.9946 34.4329 60.9898 34.4424 60.9898 34.4567C60.9851 34.4805 60.9803 34.5043 60.9755 34.528C60.9755 34.5375 60.9708 34.5471 60.9708 34.5566C60.966 34.5899 60.966 34.6184 60.966 34.6469C60.966 34.6517 60.966 34.6564 60.966 34.6612C60.966 34.6992 60.9708 34.7325 60.9803 34.7706C60.9803 34.7753 60.9803 34.7848 60.9803 34.7896C60.9898 34.8181 60.9946 34.8514 61.0041 34.8799C61.0088 34.8942 61.0136 34.9085 61.0183 34.9227C61.0279 34.9465 61.0326 34.975 61.0469 34.9988C61.0516 35.0131 61.0564 35.0226 61.0611 35.0321C61.123 35.1748 61.2228 35.3222 61.3512 35.4649C61.4891 35.617 61.6651 35.7692 61.8696 35.9261C61.8743 35.9261 61.8743 35.9261 61.8743 35.9309C61.9314 35.9689 61.9885 36.0117 62.0503 36.0545C62.0645 36.064 62.074 36.0736 62.0883 36.0783C62.2548 36.1924 62.4307 36.3018 62.6304 36.4159C62.678 36.4445 62.7255 36.473 62.7731 36.4968C62.8207 36.5253 62.8682 36.5491 62.9158 36.5729C62.9728 36.6062 63.0394 36.6395 63.1012 36.6727C63.144 36.6918 63.1821 36.7155 63.2249 36.7346C63.32 36.7821 63.4198 36.8297 63.5197 36.8772C63.534 36.8867 63.5435 36.8915 63.5577 36.8962C63.6671 36.9486 63.7765 36.9961 63.8859 37.0389C63.9334 37.0579 63.9762 37.077 64.0238 37.096C64.0333 37.1007 64.0428 37.1055 64.0523 37.1055C65.07 37.5049 66.3254 37.7712 67.4334 37.8188C67.5143 37.8236 67.5999 37.8283 67.6807 37.8283H67.6855C67.7235 37.8283 67.7568 37.8283 67.7948 37.8236C67.8804 37.8236 67.966 37.8236 68.0516 37.8236C68.0611 37.8236 68.0707 37.8236 68.0802 37.8188C69.8825 37.7617 71.3614 37.2957 72.6216 36.3731C72.6216 36.3684 72.6216 36.3684 72.6216 36.3684C74.0197 35.3127 74.7901 33.8242 74.7901 32.1836C74.7901 32.079 74.7853 31.9744 74.7806 31.8745C74.7806 31.8365 74.7758 31.7984 74.7758 31.7651Z" fill="#29B5E8"></path><path d="M86.403 18.1218C86.3982 18.1218 86.3935 18.1218 86.3887 18.1218C84.1727 18.1218 82.0803 19.0254 80.568 20.6232V19.2631C80.568 18.6354 80.083 18.1218 79.4695 18.1218C79.4267 18.1218 79.3887 18.1266 79.3507 18.1266C79.0796 18.1551 78.8418 18.274 78.6659 18.45C78.6611 18.45 78.6611 18.45 78.6564 18.4547C78.6421 18.4737 78.6231 18.4928 78.6088 18.5118C78.5993 18.5165 78.5898 18.526 78.585 18.5355C78.5708 18.5498 78.5612 18.5641 78.5517 18.5783C78.5422 18.5926 78.5327 18.6069 78.5185 18.6211C78.5137 18.6307 78.5089 18.6402 78.5042 18.6497C78.4899 18.6735 78.4757 18.6972 78.4614 18.7163C78.4614 18.721 78.4614 18.7258 78.4566 18.7305C78.4424 18.7591 78.4281 18.7876 78.4138 18.8161C78.3901 18.8875 78.3663 18.9588 78.352 19.0301C78.352 19.0349 78.352 19.0396 78.3473 19.0396C78.3425 19.0777 78.3377 19.111 78.333 19.1442C78.333 19.1823 78.3282 19.2203 78.3282 19.2631V36.9248L78.314 37.0009L78.371 37.0485C78.371 37.0722 78.3758 37.1055 78.3901 37.1388C78.3901 37.1436 78.3948 37.1531 78.3948 37.1578C78.4043 37.1816 78.4186 37.2101 78.4424 37.2339C78.5898 37.5145 78.8608 37.7285 79.1795 37.8236L79.2032 37.8283H79.4695C79.5123 37.8283 79.5551 37.8283 79.5979 37.8236C79.6265 37.8188 79.655 37.8093 79.6835 37.8046C79.6978 37.8046 79.7073 37.8046 79.7216 37.7998C79.7596 37.7903 79.7977 37.7808 79.8357 37.7665C79.8357 37.7665 79.8357 37.7665 79.8405 37.7665C80.0402 37.6952 80.2114 37.5716 80.3255 37.4051C80.3303 37.4004 80.335 37.3956 80.3398 37.3908C80.4159 37.31 80.4587 37.2244 80.5015 37.1055C80.5062 37.0913 80.511 37.0817 80.511 37.0722C80.5157 37.0675 80.5157 37.0675 80.5157 37.0627C80.5348 37.0057 80.549 36.9486 80.5633 36.8915L80.568 36.8725V26.1823C80.6441 22.9961 83.2501 20.4044 86.3792 20.3997C86.3839 20.3997 86.3839 20.3997 86.3887 20.3997C89.5748 20.3997 92.1666 22.9914 92.1666 26.1775V36.687C92.1666 36.7298 92.1713 36.7679 92.1761 36.8059C92.1998 37.0817 92.3187 37.3195 92.4947 37.4955C92.4947 37.4955 92.4994 37.4955 92.4994 37.5002C92.5185 37.5192 92.5375 37.5335 92.5565 37.5525C92.566 37.562 92.5708 37.5668 92.5803 37.5716C92.5945 37.5858 92.6088 37.5953 92.6231 37.6048C92.6373 37.6191 92.6516 37.6286 92.6659 37.6381C92.6801 37.6429 92.6897 37.6476 92.6992 37.6572C92.7182 37.6714 92.742 37.6809 92.761 37.6952C92.7657 37.6952 92.7705 37.7 92.78 37.7C92.8038 37.7142 92.8323 37.7285 92.8608 37.7428H92.8656C92.9322 37.7713 93.0035 37.7903 93.0748 37.8046C93.0844 37.8046 93.0891 37.8093 93.0939 37.8093C93.1271 37.8141 93.1557 37.8188 93.189 37.8236C93.227 37.8283 93.2651 37.8283 93.3079 37.8283C93.3459 37.8283 93.3839 37.8283 93.422 37.8236C93.4553 37.8188 93.4886 37.8141 93.5171 37.8093C93.5219 37.8093 93.5314 37.8046 93.5361 37.8046C93.6122 37.7903 93.6788 37.7713 93.7501 37.7428C93.7786 37.7285 93.8072 37.7142 93.8357 37.7C93.8405 37.7 93.8452 37.6952 93.85 37.6952C93.8738 37.6809 93.8928 37.6714 93.9166 37.6572C93.9261 37.6476 93.9356 37.6429 93.9451 37.6381C93.9593 37.6286 93.9736 37.6191 93.9879 37.6048C94.0021 37.5953 94.0212 37.5858 94.0354 37.5716C94.0402 37.5668 94.0497 37.562 94.0545 37.5525C94.0735 37.5335 94.0973 37.5192 94.1163 37.5002C94.1163 37.4955 94.1163 37.4955 94.1163 37.4955C94.297 37.3195 94.4159 37.0817 94.4396 36.8059C94.4444 36.7679 94.4444 36.7298 94.4444 36.687V26.1775C94.4444 21.7407 90.8398 18.1313 86.403 18.1218Z" fill="#29B5E8"></path><path d="M106.918 18.0837C112.082 18.0837 116.281 22.5111 116.281 27.956C116.281 33.401 112.082 37.8283 106.918 37.8283C106.756 37.8283 106.599 37.8236 106.442 37.814C106.418 37.814 106.399 37.814 106.376 37.8093C106.238 37.8045 106.1 37.7903 105.967 37.776C105.962 37.776 105.957 37.776 105.952 37.776C103.912 37.5525 102.005 36.6204 100.488 35.0939C100.426 35.0321 100.36 34.9703 100.303 34.9037C100.298 34.9037 100.298 34.899 100.293 34.899C100.26 34.8657 100.232 34.8276 100.198 34.7896C100.127 34.7135 100.056 34.6327 99.9842 34.5518C99.9272 34.49 99.8749 34.4187 99.8178 34.3521C99.7797 34.2998 99.7369 34.2475 99.6941 34.1952C99.6085 34.0905 99.5277 33.9812 99.4516 33.8718C99.4421 33.8575 99.4326 33.8433 99.4231 33.829C98.4958 32.5308 97.8918 31.0328 97.6636 29.4445C97.6398 29.2971 97.6255 29.1496 97.6113 29.0022C97.6065 28.988 97.6065 28.9689 97.6018 28.9499C97.5875 28.812 97.578 28.6789 97.5732 28.5409C97.5685 28.5124 97.5685 28.4839 97.5685 28.4506C97.559 28.2889 97.5542 28.1225 97.5542 27.956C97.5542 27.7896 97.559 27.6231 97.5685 27.4615C97.5685 27.4282 97.5685 27.3996 97.5732 27.3711C97.578 27.2332 97.5875 27.0953 97.6018 26.9621C97.6065 26.9431 97.6065 26.9241 97.6113 26.9098C97.6255 26.7624 97.6398 26.615 97.6636 26.4676C97.8918 24.8793 98.4958 23.3813 99.4231 22.0831C99.4278 22.0688 99.4374 22.0545 99.4469 22.045C99.5277 21.9309 99.6085 21.8215 99.6941 21.7121C99.7322 21.6646 99.775 21.617 99.813 21.5647C99.8701 21.4934 99.9272 21.4268 99.9842 21.3555C100.051 21.2794 100.117 21.2081 100.189 21.132C100.222 21.0939 100.26 21.0511 100.293 21.0131C100.298 21.0131 100.298 21.0083 100.303 21.0083C100.355 20.9465 100.417 20.8894 100.474 20.8324C101.991 19.3011 103.903 18.3596 105.952 18.1361C105.957 18.1361 105.962 18.1361 105.967 18.1361C106.1 18.1218 106.238 18.1123 106.376 18.1028C106.399 18.1028 106.418 18.098 106.442 18.098C106.599 18.0885 106.756 18.0837 106.918 18.0837ZM113.965 27.1809C113.965 27.1761 113.965 27.1761 113.965 27.1714C113.799 25.4594 113.095 23.9139 112.044 22.7203C111.996 22.668 111.954 22.6157 111.906 22.5634C111.878 22.5348 111.849 22.5063 111.821 22.4778C111.763 22.4207 111.711 22.3636 111.654 22.3066C111.602 22.2543 111.545 22.2067 111.492 22.1591C111.459 22.1306 111.431 22.0973 111.397 22.0688C111.312 21.9927 111.226 21.9214 111.14 21.85C111.14 21.85 111.136 21.85 111.136 21.8453C110.142 21.0416 108.948 20.5138 107.664 20.3663C107.65 20.3663 107.64 20.3616 107.631 20.3616C107.531 20.3473 107.436 20.3426 107.336 20.3378C107.312 20.3331 107.293 20.3331 107.274 20.3331C107.155 20.3236 107.037 20.3236 106.918 20.3236C106.799 20.3236 106.68 20.3236 106.561 20.3331C106.542 20.3331 106.523 20.3331 106.499 20.3378C106.399 20.3426 106.304 20.3473 106.204 20.3616C106.195 20.3616 106.185 20.3663 106.171 20.3663C104.887 20.5138 103.693 21.0416 102.7 21.8453C102.7 21.85 102.695 21.85 102.695 21.85C102.609 21.9214 102.524 21.9927 102.438 22.0688C102.405 22.0973 102.376 22.1259 102.343 22.1544C102.291 22.2067 102.234 22.2543 102.181 22.3066C102.129 22.3589 102.077 22.4159 102.02 22.473C101.991 22.5015 101.962 22.5301 101.929 22.5634C101.886 22.6109 101.844 22.6632 101.796 22.7155C100.745 23.9091 100.037 25.4594 99.8701 27.1714C99.8701 27.1761 99.8701 27.1761 99.8701 27.1809C99.8606 27.2903 99.8511 27.3996 99.8463 27.5138C99.8463 27.5328 99.8416 27.5518 99.8416 27.5708C99.8368 27.6992 99.8321 27.8276 99.8321 27.956C99.8321 32.1361 103.047 35.5505 106.918 35.5505C110.789 35.5505 114.003 32.1361 114.003 27.956C114.003 27.8276 113.998 27.6992 113.994 27.5708C113.994 27.5518 113.989 27.5328 113.989 27.5138C113.984 27.3996 113.975 27.2903 113.965 27.1809Z" fill="#29B5E8"></path><path d="M143.801 18.5735C143.791 18.564 143.787 18.5545 143.777 18.545C143.663 18.4023 143.511 18.2882 143.34 18.2168C143.34 18.2168 143.34 18.2168 143.335 18.2168C143.316 18.2026 143.292 18.1978 143.273 18.1883C143.264 18.1883 143.254 18.1836 143.24 18.1788C143.088 18.1265 142.921 18.117 142.76 18.1408H142.755C142.427 18.1931 142.113 18.3928 141.937 18.6876C141.937 18.6876 141.937 18.6876 141.932 18.6876C141.908 18.7352 141.88 18.7827 141.861 18.8303L141.856 18.835V18.8398L136.406 33.7576L132.126 23.5715C132.084 23.4764 132.027 23.3908 131.96 23.3099C131.727 23.0389 131.37 22.8677 131.004 22.8677C130.947 22.8677 130.895 22.8677 130.838 22.8819C130.833 22.8819 130.828 22.8819 130.819 22.8819C130.438 22.9485 130.082 23.2148 129.92 23.5715C129.92 23.5762 129.92 23.5762 129.92 23.5762L125.64 33.7624L123.567 28.1272L120.152 18.8398C120.133 18.7875 120.114 18.7447 120.09 18.6971C120.086 18.6924 120.086 18.6924 120.081 18.6876C119.976 18.4927 119.81 18.3405 119.61 18.2454C119.61 18.2454 119.605 18.2454 119.605 18.2406C119.505 18.1978 119.401 18.1645 119.291 18.1455C119.282 18.1455 119.277 18.1455 119.268 18.1408C119.215 18.136 119.158 18.1312 119.106 18.1312H119.101C119.087 18.1312 119.077 18.1312 119.068 18.1312C119.044 18.1312 119.02 18.1312 118.997 18.136C118.982 18.136 118.963 18.1408 118.949 18.1408C118.925 18.1455 118.906 18.1455 118.887 18.1503C118.873 18.155 118.859 18.155 118.844 18.1598C118.821 18.1645 118.797 18.1693 118.773 18.1788C118.764 18.1836 118.754 18.1836 118.745 18.1883C118.721 18.1978 118.697 18.2026 118.673 18.2168C118.673 18.2168 118.673 18.2168 118.669 18.2168C118.474 18.3024 118.317 18.4499 118.202 18.6211C118.198 18.6306 118.193 18.6353 118.188 18.6448C118.183 18.6543 118.179 18.6639 118.174 18.6734C118.088 18.816 118.036 18.9825 118.017 19.1489C117.998 19.3249 118.022 19.5103 118.093 19.6815L122.045 30.3004L124.58 37.1102C124.58 37.1102 124.58 37.1102 124.58 37.1149C124.684 37.3717 124.836 37.5477 125.046 37.6428C125.05 37.6475 125.06 37.6523 125.065 37.6571C125.069 37.6618 125.074 37.6666 125.084 37.6713C125.084 37.6761 125.088 37.6761 125.093 37.6808C125.103 37.6856 125.107 37.6903 125.117 37.6999C125.122 37.6999 125.122 37.6999 125.126 37.6999C125.164 37.7236 125.212 37.7427 125.274 37.7474C125.279 37.7474 125.283 37.7522 125.288 37.7522C125.307 37.7569 125.326 37.7664 125.345 37.7712C125.355 37.7712 125.364 37.7759 125.374 37.7759C125.493 37.814 125.569 37.8283 125.664 37.8283C125.716 37.8283 125.764 37.8235 125.816 37.814C125.854 37.8092 125.897 37.7997 125.935 37.7855C125.944 37.7807 125.954 37.7807 125.963 37.7759C126.001 37.7664 126.039 37.7522 126.077 37.7331C126.092 37.7284 126.106 37.7236 126.12 37.7141C126.144 37.6999 126.173 37.6856 126.201 37.6713C126.22 37.6571 126.244 37.6428 126.268 37.6285C126.282 37.619 126.296 37.6047 126.311 37.5952C126.344 37.5715 126.372 37.5477 126.406 37.5192C126.41 37.5144 126.415 37.5096 126.42 37.5001C126.453 37.4668 126.486 37.4336 126.52 37.3955C126.52 37.3908 126.525 37.386 126.529 37.3812C126.558 37.3432 126.586 37.3004 126.61 37.2576C126.634 37.21 126.658 37.1577 126.677 37.1054L126.681 37.0912L126.696 37.0721L126.71 37.0389L131.004 26.7861L135.336 37.0769C135.37 37.1815 135.422 37.2766 135.493 37.367C135.503 37.3812 135.512 37.3908 135.522 37.405C135.546 37.4336 135.569 37.4621 135.598 37.4906C135.612 37.5001 135.626 37.5144 135.641 37.5239C135.664 37.5477 135.693 37.5715 135.722 37.5952C135.736 37.6047 135.745 37.6143 135.76 37.619C135.793 37.6428 135.826 37.6666 135.859 37.6856C135.869 37.6903 135.878 37.6951 135.888 37.6999C135.926 37.7189 135.959 37.7379 136.002 37.7522C136.012 37.7569 136.021 37.7617 136.035 37.7617C136.069 37.7759 136.102 37.7902 136.14 37.7997C136.188 37.8092 136.235 37.8187 136.278 37.8283H136.421C136.478 37.8283 136.53 37.8235 136.582 37.814C136.597 37.814 136.606 37.814 136.62 37.8092C136.668 37.7997 136.711 37.7902 136.753 37.7759C136.768 37.7712 136.777 37.7664 136.787 37.7617C136.834 37.7474 136.882 37.7236 136.925 37.6999C136.929 37.6999 136.934 37.6951 136.939 37.6951C136.991 37.6618 137.044 37.6285 137.086 37.5952C137.277 37.4526 137.414 37.2671 137.51 37.0389V37.0341L140.187 29.8249L143.953 19.6815C144.101 19.3249 144.044 18.9349 143.839 18.6306C143.83 18.6115 143.815 18.5925 143.801 18.5735Z" fill="#29B5E8"></path><path d="M204.276 18.8923C204.276 18.8733 204.271 18.8495 204.266 18.8305C204.266 18.8162 204.261 18.8019 204.256 18.7877C204.252 18.7639 204.247 18.7401 204.242 18.7211C204.237 18.7068 204.233 18.6926 204.228 18.6831C204.223 18.6545 204.214 18.6308 204.199 18.607C204.199 18.5975 204.195 18.5927 204.19 18.5832C204.176 18.5499 204.161 18.5214 204.142 18.4928C204.142 18.4881 204.142 18.4881 204.142 18.4881C204.085 18.3882 204.014 18.3026 203.933 18.2265C203.928 18.2218 203.928 18.2218 203.928 18.2218C203.924 18.217 203.924 18.217 203.924 18.217C203.519 17.8128 202.949 17.7605 202.502 18.0744C202.487 18.0839 202.478 18.0934 202.464 18.0981C202.445 18.1124 202.426 18.1267 202.407 18.1409C202.378 18.1695 202.35 18.1933 202.321 18.2218C202.321 18.2218 202.316 18.2218 202.316 18.2265L191.174 29.088V10.9222C191.174 10.8842 191.174 10.8461 191.17 10.8081C191.127 10.3896 190.846 10.0424 190.466 9.88075C190.461 9.88075 190.461 9.876 190.456 9.876C190.432 9.86649 190.409 9.85698 190.385 9.85222C190.375 9.84746 190.361 9.84271 190.347 9.83795C190.328 9.8332 190.309 9.82844 190.285 9.82369C190.271 9.81893 190.252 9.81418 190.233 9.80942C190.214 9.80467 190.19 9.79991 190.171 9.79991C190.152 9.79516 190.138 9.79516 190.119 9.7904C190.076 9.78564 190.038 9.78564 190 9.78564C189.377 9.78564 188.858 10.304 188.858 10.9222V36.6871C188.858 37.3101 189.377 37.8284 190 37.8284C190.038 37.8284 190.081 37.8284 190.119 37.8237C190.123 37.8237 190.128 37.8189 190.138 37.8189C190.171 37.8142 190.204 37.8142 190.233 37.8047C190.242 37.8047 190.252 37.7999 190.261 37.7999C190.29 37.7904 190.318 37.7856 190.347 37.7761C190.352 37.7761 190.356 37.7714 190.361 37.7714C190.799 37.6335 191.122 37.2578 191.17 36.806C191.174 36.768 191.174 36.7299 191.174 36.6871V32.3407L194.926 28.5934L202.216 37.3909C202.264 37.467 202.316 37.5336 202.383 37.5859C202.397 37.6002 202.407 37.6097 202.421 37.6192C202.44 37.6335 202.459 37.6477 202.478 37.6572C202.502 37.6763 202.526 37.6858 202.549 37.7C202.559 37.7048 202.573 37.7143 202.583 37.7191C202.616 37.7333 202.644 37.7428 202.678 37.7571C202.687 37.7619 202.697 37.7619 202.701 37.7666C202.74 37.7761 202.773 37.7856 202.811 37.7952C202.816 37.7952 202.825 37.7999 202.835 37.7999C202.873 37.8094 202.906 37.8142 202.949 37.8189C202.958 37.8189 202.968 37.8189 202.977 37.8237C203.025 37.8237 203.072 37.8284 203.125 37.8284C203.201 37.8284 203.272 37.8237 203.339 37.8142C203.343 37.8142 203.343 37.8142 203.343 37.8142C203.477 37.7952 203.6 37.7524 203.714 37.6953C203.719 37.6953 203.719 37.6905 203.719 37.6905C203.771 37.662 203.824 37.6287 203.876 37.5907L203.89 37.5764C204.323 37.1437 204.39 36.554 204.076 36.0642C204.047 36.0214 204.019 35.9786 203.985 35.9358L196.581 26.9433L203.933 19.8386C204.128 19.6389 204.247 19.3964 204.276 19.1348C204.276 19.1301 204.276 19.1253 204.28 19.1206C204.28 19.0968 204.28 19.0683 204.28 19.0445C204.28 19.0302 204.285 19.0159 204.285 19.0064C204.285 18.9969 204.285 18.9922 204.285 18.9874C204.285 18.9684 204.28 18.9541 204.28 18.9351C204.28 18.9208 204.276 18.9066 204.276 18.8923Z" fill="#29B5E8"></path></g><defs><clipPath id="clip0_3373_4093"><rect width="224" height="53.5652" fill="white" transform="translate(0.666992 0.94043)"></rect></clipPath></defs></svg> 